<svg width="51" height="51" viewBox="0 0 51 51" fill="none" xmlns="http://www.w3.org/2000/svg">
<path d="M25.5337 0.268142C11.7345 0.120127 0.415029 11.1994 0.267015 24.9986C0.119 38.7978 11.1982 50.1173 24.9974 50.2653C38.7966 50.4133 50.1161 39.3341 50.2641 25.5348C50.4122 11.7356 39.3329 0.416156 25.5337 0.268142ZM36.9507 17.3916C36.5334 21.3373 34.8055 30.9194 33.9331 35.3352C33.563 37.2064 32.8563 37.8238 32.2056 37.8919C30.7543 38.0013 29.6659 36.9146 28.2759 35.9746C26.0916 34.5011 24.8513 33.5877 22.7414 32.165C20.284 30.5136 21.8936 29.6308 23.334 28.1962C23.713 27.8252 30.1752 22.0692 30.3058 21.5455C30.324 21.4662 30.3226 21.3837 30.3016 21.305C30.2807 21.2263 30.2409 21.154 30.1856 21.0942C30.037 20.9676 29.8364 21.0155 29.6612 21.0386C29.4357 21.0862 25.9109 23.3735 19.037 27.9001C18.0298 28.5643 17.1261 28.9046 16.3264 28.871C15.4267 28.8364 13.7319 28.3432 12.4615 27.9045C10.892 27.3877 9.67002 27.0995 9.7794 26.2257C9.83422 25.7762 10.464 25.3329 11.644 24.8706C18.9777 21.7741 23.8499 19.7262 26.2855 18.7523C33.2662 15.927 34.6965 15.4423 35.6464 15.4525C35.8464 15.4546 36.3209 15.5097 36.6182 15.7629C36.866 15.9656 36.938 16.2414 36.9609 16.4416C36.9343 16.5914 36.9795 17.0419 36.9507 17.3916Z" fill="#232323"/>
</svg>
