<svg width="118" height="56" viewBox="0 0 118 56" fill="none" xmlns="http://www.w3.org/2000/svg">
<g clip-path="url(#clip0_700_4765)">
<path d="M5.34894 9.65469V33.5863H0.203125V9.65469H5.34894ZM5.34894 0.0820312V4.86837H0.203125V0.0820312H5.34894Z" fill="#6300DB"/>
<path d="M35.4477 24.0144V28.8008H30.3019V24.0144H35.4477ZM20.0104 4.86914V33.5871H18.518C17.4546 33.5871 16.5798 33.268 15.8937 32.6298C15.2076 31.9916 14.8645 31.1779 14.8645 30.1888V4.86914H20.0104ZM30.3019 28.8008V33.5871H20.0104V28.8008H30.3019ZM30.3019 9.65547V14.4418H9.71875V9.65547H30.3019Z" fill="#6300DB"/>
<path d="M58.876 9.65441H64.0222V33.586H58.876V9.65441ZM38.293 18.9877C38.293 16.9456 38.859 15.1906 39.9911 13.7228C41.1232 12.255 42.6669 11.1382 44.6223 10.3724C46.612 9.57463 48.8075 9.17578 51.2089 9.17578C53.5758 9.17578 55.7374 9.57463 57.6924 10.3724C59.6479 11.1382 61.1917 12.255 62.3238 13.7228C63.4559 15.1906 64.0222 16.9456 64.0222 18.9877V23.7262C64.0222 25.7683 63.4559 27.5393 62.3238 29.039C61.1917 30.5068 59.6479 31.6396 57.6924 32.4373C55.7374 33.2031 53.5758 33.586 51.2089 33.586C48.8075 33.586 46.612 33.2031 44.6223 32.4373C42.6669 31.6396 41.1232 30.5068 39.9911 29.039C38.859 27.5393 38.293 25.7683 38.293 23.7262V18.9877ZM43.4387 23.0561C43.4387 25.194 44.2278 26.6937 45.8059 27.5553C47.4182 28.3849 49.2192 28.7997 51.2089 28.7997C53.1301 28.7997 54.8795 28.3849 56.4578 27.5553C58.0356 26.6937 58.8245 25.194 58.8245 23.0561V19.6578C58.8245 17.5199 58.0356 16.0362 56.4578 15.2066C54.914 14.3769 53.1641 13.9621 51.2089 13.9621C49.2192 13.9621 47.4182 14.3769 45.8059 15.2066C44.2278 16.0362 43.4387 17.5199 43.4387 19.6578V23.0561ZM53.7304 18.9877V23.7741H48.5846V18.9877H53.7304Z" fill="#6300DB"/>
<path d="M91.9573 20.1842C91.9573 18.0463 91.1684 16.5625 89.5901 15.7329C88.0123 14.8714 86.2624 14.4406 84.3414 14.4406C82.3519 14.4406 80.5505 14.8714 78.9381 15.7329C77.3603 16.5625 76.5714 18.0463 76.5714 20.1842V23.5825L71.4253 24.2526V19.5141C71.4253 17.4719 71.9916 15.7169 73.1237 14.2492C74.2558 12.7494 75.7995 11.6167 77.7551 10.8509C79.7446 10.0531 81.9402 9.6543 84.3414 9.6543C86.7086 9.6543 88.8527 10.0531 90.7737 10.8509C92.7292 11.6167 94.273 12.7494 95.4051 14.2492C96.5371 15.7169 97.1029 17.4719 97.1029 19.5141V33.5859H91.9573V20.1842ZM76.5714 18.7483V33.5859H71.4253V18.7483H76.5714ZM117.686 28.7996V33.5859H112.54V28.7996H117.686ZM112.489 20.1842C112.489 18.0463 111.7 16.5625 110.122 15.7329C108.544 14.8714 106.794 14.4406 104.873 14.4406C102.883 14.4406 101.082 14.8714 99.4701 15.7329C97.8578 16.5625 97.0514 18.0463 97.0514 20.1842V23.5825L91.9573 24.2526V19.5141C91.9573 17.4719 92.5231 15.7169 93.6552 14.2492C94.7872 12.7494 96.331 11.6167 98.2865 10.8509C100.276 10.0531 102.472 9.6543 104.873 9.6543C107.24 9.6543 109.402 10.0531 111.357 10.8509C113.312 11.6167 114.856 12.7494 115.988 14.2492C117.12 15.7169 117.686 17.4719 117.686 19.5141V28.7996H112.489V20.1842ZM73.0206 9.6543V14.4406H67.875V9.6543H73.0206Z" fill="#6300DB"/>
<path d="M2.18293 41.0254V55.7375H0.203125V41.0254H2.18293Z" fill="white"/>
<path d="M9.71679 41.0254V55.7375H7.73697V41.0254H9.71679ZM13.6764 41.0254V42.8644H3.77734V41.0254H13.6764Z" fill="white"/>
<path d="M34.8298 49.3008V51.1397H26.7918V49.3008H34.8298ZM31.8997 41.0254L26.1583 55.7375H23.9805L29.7219 41.0254H31.8997ZM37.6411 55.7375H35.4634L29.7219 41.0254H31.8997L37.6411 55.7375Z" fill="white"/>
<path d="M42.1972 41.0254V55.7375H40.2175V41.0254H42.1972ZM46.1569 41.0254V42.8644H36.2578V41.0254H46.1569Z" fill="white"/>
<path d="M58.4446 41.0254V55.7375H56.4648V41.0254H58.4446ZM60.6227 41.0254L66.7602 55.7375H64.5821L58.4446 41.0254H60.6227ZM60.6227 41.0254V42.8644H56.4648V41.0254H60.6227ZM75.0753 55.7375H73.0951V41.0254H75.0753V55.7375ZM66.9581 55.7375H64.78L70.9175 41.0254H73.0951L66.9581 55.7375ZM75.0753 42.8644H70.9175V41.0254H75.0753V42.8644Z" fill="white"/>
<path d="M79.6125 41.0254V55.7375H77.6328V41.0254H79.6125Z" fill="white"/>
<path d="M81.9844 45.7335C81.9844 44.7036 82.3276 43.8209 83.0139 43.0853C83.7003 42.3498 84.5912 41.7919 85.6867 41.4119C86.7956 41.0318 87.9766 40.8418 89.2308 40.8418C90.4448 40.8418 91.5604 41.0318 92.5766 41.4119C93.5927 41.7797 94.4372 42.3314 95.1107 43.067C95.7971 43.8026 96.2459 44.6914 96.4566 45.7335H94.1209C93.7777 44.6914 93.164 43.9558 92.2792 43.5267C91.4084 43.0853 90.3923 42.8647 89.2308 42.8647C87.9637 42.8647 86.8286 43.0915 85.8253 43.5451C84.822 43.9865 84.3207 44.7159 84.3207 45.7335H81.9844ZM84.3207 51.0668C84.6639 52.0963 85.2709 52.8257 86.1422 53.2551C87.0264 53.6839 88.056 53.8984 89.2308 53.8984C90.4979 53.8984 91.6264 53.6777 92.6162 53.2364C93.619 52.7951 94.1209 52.0657 94.1209 51.0481H96.4767C96.4767 52.0781 96.1336 52.9607 95.4472 53.6964C94.7742 54.432 93.8833 54.9896 92.7744 55.3697C91.6655 55.7377 90.4845 55.9215 89.2308 55.9215C88.0029 55.9215 86.8811 55.7377 85.865 55.3697C84.8488 55.0021 83.9971 54.4564 83.3107 53.7332C82.6378 52.9976 82.1956 52.1088 81.9844 51.0668H84.3207ZM94.1209 51.0481C94.1209 50.7293 93.9292 50.4781 93.5463 50.2943C93.164 50.098 92.6822 49.9511 92.1015 49.853C91.5207 49.7548 90.6958 49.6443 89.6266 49.5217C88.0426 49.3504 86.7358 49.1599 85.7063 48.9517C84.6901 48.7435 83.8126 48.3879 83.0732 47.8853C82.3477 47.3702 81.9844 46.653 81.9844 45.7335H84.3207C84.3207 46.1381 84.5319 46.4568 84.954 46.6898C85.3765 46.9227 85.9114 47.0944 86.558 47.2047C87.2047 47.3028 88.0889 47.4008 89.2107 47.4989C90.755 47.646 92.0087 47.8177 92.9723 48.0141C93.9359 48.1979 94.7608 48.5286 95.4472 49.0067C96.1336 49.4849 96.4767 50.1655 96.4767 51.0481H94.1209Z" fill="white"/>
<path d="M100.823 41.0254V55.7375H98.8438V41.0254H100.823Z" fill="white"/>
<path d="M103.195 45.7335C103.195 44.7036 103.538 43.8209 104.225 43.0853C104.911 42.3498 105.802 41.7919 106.898 41.4119C108.006 41.0318 109.188 40.8418 110.441 40.8418C111.656 40.8418 112.771 41.0318 113.787 41.4119C114.804 41.7797 115.648 42.3313 116.322 43.067C117.007 43.8026 117.456 44.6914 117.668 45.7335H115.331C114.988 44.6914 114.374 43.9558 113.49 43.5267C112.619 43.0853 111.603 42.8647 110.441 42.8647C109.174 42.8647 108.039 43.0915 107.036 43.5451C106.033 43.9865 105.532 44.7159 105.532 45.7335H103.195ZM105.532 51.0668C105.875 52.0963 106.482 52.8257 107.353 53.2551C108.237 53.6839 109.267 53.8984 110.441 53.8984C111.708 53.8984 112.837 53.6777 113.827 53.2364C114.83 52.7951 115.331 52.0657 115.331 51.0481H117.688C117.688 52.0781 117.344 52.9607 116.658 53.6964C115.985 54.432 115.094 54.9896 113.985 55.3697C112.876 55.7377 111.695 55.9215 110.441 55.9215C109.214 55.9215 108.092 55.7377 107.076 55.3697C106.059 55.0021 105.208 54.4564 104.522 53.7332C103.849 52.9976 103.407 52.1088 103.195 51.0668H105.532ZM115.331 51.0481C115.331 50.7293 115.14 50.4781 114.757 50.2943C114.374 50.098 113.893 49.9511 113.312 49.853C112.731 49.7548 111.906 49.6443 110.837 49.5217C109.254 49.3504 107.947 49.1599 106.917 48.9517C105.901 48.7435 105.024 48.3879 104.284 47.8853C103.558 47.3702 103.195 46.653 103.195 45.7335H105.532C105.532 46.1381 105.743 46.4568 106.165 46.6898C106.587 46.9227 107.122 47.0944 107.768 47.2047C108.415 47.3028 109.3 47.4008 110.422 47.4989C111.966 47.646 113.22 47.8177 114.183 48.0141C115.147 48.1979 115.972 48.5286 116.658 49.0067C117.344 49.4849 117.688 50.1655 117.688 51.0481H115.331Z" fill="white"/>
</g>
<defs>
<clipPath id="clip0_700_4765">
<rect width="118" height="56" fill="white"/>
</clipPath>
</defs>
</svg>
