<svg width="129" height="39" viewBox="0 0 129 39" fill="none" xmlns="http://www.w3.org/2000/svg">
<path d="M5.65017 11.1429V39H0V11.1429H5.65017ZM5.65017 0V5.57143H0V0H5.65017Z" fill="white"/>
<path d="M5.65017 11.1429V39H0V11.1429H5.65017ZM5.65017 0V5.57143H0V0H5.65017Z" fill="white"/>
<path d="M38.7015 27.8571V33.4286H33.0513V27.8571H38.7015ZM21.7509 5.57143V39H20.1124C18.9447 39 17.9842 38.6286 17.2308 37.8857C16.4775 37.1429 16.1008 36.1957 16.1008 35.0443V5.57143H21.7509ZM33.0513 33.4286V39H21.7509V33.4286H33.0513ZM33.0513 11.1429V16.7143H10.4506V11.1429H33.0513Z" fill="white"/>
<path d="M38.7015 27.8571V33.4286H33.0513V27.8571H38.7015ZM21.7509 5.57143V39H20.1124C18.9447 39 17.9842 38.6286 17.2308 37.8857C16.4775 37.1429 16.1008 36.1957 16.1008 35.0443V5.57143H21.7509ZM33.0513 33.4286V39H21.7509V33.4286H33.0513ZM33.0513 11.1429V16.7143H10.4506V11.1429H33.0513Z" fill="white"/>
<path d="M64.4274 11.1429H70.0776V39H64.4274V11.1429ZM41.8267 22.0071C41.8267 19.63 42.4482 17.5871 43.6913 15.8786C44.9343 14.17 46.6293 12.87 48.7764 11.9786C50.9611 11.05 53.3719 10.5857 56.0086 10.5857C58.6077 10.5857 60.9808 11.05 63.1278 11.9786C65.2749 12.87 66.97 14.17 68.213 15.8786C69.456 17.5871 70.0776 19.63 70.0776 22.0071V27.5229C70.0776 29.9 69.456 31.9614 68.213 33.7071C66.97 35.4157 65.2749 36.7343 63.1278 37.6629C60.9808 38.5543 58.6077 39 56.0086 39C53.3719 39 50.9611 38.5543 48.7764 37.6629C46.6293 36.7343 44.9343 35.4157 43.6913 33.7071C42.4482 31.9614 41.8267 29.9 41.8267 27.5229V22.0071ZM47.4769 26.7429C47.4769 29.2314 48.3432 30.9771 50.0759 31.98C51.8463 32.9457 53.8239 33.4286 56.0086 33.4286C58.118 33.4286 60.0391 32.9457 61.7718 31.98C63.5045 30.9771 64.3709 29.2314 64.3709 26.7429V22.7871C64.3709 20.2986 63.5045 18.5714 61.7718 17.6057C60.0767 16.64 58.1557 16.1571 56.0086 16.1571C53.8239 16.1571 51.8463 16.64 50.0759 17.6057C48.3432 18.5714 47.4769 20.2986 47.4769 22.7871V26.7429ZM58.7772 22.0071V27.5786H53.127V22.0071H58.7772Z" fill="white"/>
<path d="M64.4274 11.1429H70.0776V39H64.4274V11.1429ZM41.8267 22.0071C41.8267 19.63 42.4482 17.5871 43.6913 15.8786C44.9343 14.17 46.6293 12.87 48.7764 11.9786C50.9611 11.05 53.3719 10.5857 56.0086 10.5857C58.6077 10.5857 60.9808 11.05 63.1278 11.9786C65.2749 12.87 66.97 14.17 68.213 15.8786C69.456 17.5871 70.0776 19.63 70.0776 22.0071V27.5229C70.0776 29.9 69.456 31.9614 68.213 33.7071C66.97 35.4157 65.2749 36.7343 63.1278 37.6629C60.9808 38.5543 58.6077 39 56.0086 39C53.3719 39 50.9611 38.5543 48.7764 37.6629C46.6293 36.7343 44.9343 35.4157 43.6913 33.7071C42.4482 31.9614 41.8267 29.9 41.8267 27.5229V22.0071ZM47.4769 26.7429C47.4769 29.2314 48.3432 30.9771 50.0759 31.98C51.8463 32.9457 53.8239 33.4286 56.0086 33.4286C58.118 33.4286 60.0391 32.9457 61.7718 31.98C63.5045 30.9771 64.3709 29.2314 64.3709 26.7429V22.7871C64.3709 20.2986 63.5045 18.5714 61.7718 17.6057C60.0767 16.64 58.1557 16.1571 56.0086 16.1571C53.8239 16.1571 51.8463 16.64 50.0759 17.6057C48.3432 18.5714 47.4769 20.2986 47.4769 22.7871V26.7429ZM58.7772 22.0071V27.5786H53.127V22.0071H58.7772Z" fill="white"/>
<path d="M100.749 23.4C100.749 20.9114 99.8828 19.1843 98.1501 18.2186C96.4173 17.2157 94.4963 16.7143 92.3869 16.7143C90.2022 16.7143 88.2246 17.2157 86.4542 18.2186C84.7215 19.1843 83.8551 20.9114 83.8551 23.4V27.3557L78.205 28.1357V22.62C78.205 20.2429 78.8265 18.2 80.0695 16.4914C81.3126 14.7457 83.0076 13.4271 85.1547 12.5357C87.3394 11.6071 89.7501 11.1429 92.3869 11.1429C94.986 11.1429 97.3402 11.6071 99.4496 12.5357C101.597 13.4271 103.292 14.7457 104.535 16.4914C105.778 18.2 106.399 20.2429 106.399 22.62V39H100.749V23.4ZM83.8551 21.7286V39H78.205V21.7286H83.8551ZM129 33.4286V39H123.35V33.4286H129ZM123.293 23.4C123.293 20.9114 122.427 19.1843 120.694 18.2186C118.962 17.2157 117.04 16.7143 114.931 16.7143C112.746 16.7143 110.769 17.2157 108.998 18.2186C107.228 19.1843 106.343 20.9114 106.343 23.4V27.3557L100.749 28.1357V22.62C100.749 20.2429 101.371 18.2 102.614 16.4914C103.857 14.7457 105.552 13.4271 107.699 12.5357C109.884 11.6071 112.294 11.1429 114.931 11.1429C117.53 11.1429 119.903 11.6071 122.05 12.5357C124.197 13.4271 125.892 14.7457 127.135 16.4914C128.378 18.2 129 20.2429 129 22.62V33.4286H123.293V23.4ZM79.9565 11.1429V16.7143H74.3063V11.1429H79.9565Z" fill="white"/>
<path d="M100.749 23.4C100.749 20.9114 99.8828 19.1843 98.1501 18.2186C96.4173 17.2157 94.4963 16.7143 92.3869 16.7143C90.2022 16.7143 88.2246 17.2157 86.4542 18.2186C84.7215 19.1843 83.8551 20.9114 83.8551 23.4V27.3557L78.205 28.1357V22.62C78.205 20.2429 78.8265 18.2 80.0695 16.4914C81.3126 14.7457 83.0076 13.4271 85.1547 12.5357C87.3394 11.6071 89.7501 11.1429 92.3869 11.1429C94.986 11.1429 97.3402 11.6071 99.4496 12.5357C101.597 13.4271 103.292 14.7457 104.535 16.4914C105.778 18.2 106.399 20.2429 106.399 22.62V39H100.749V23.4ZM83.8551 21.7286V39H78.205V21.7286H83.8551ZM129 33.4286V39H123.35V33.4286H129ZM123.293 23.4C123.293 20.9114 122.427 19.1843 120.694 18.2186C118.962 17.2157 117.04 16.7143 114.931 16.7143C112.746 16.7143 110.769 17.2157 108.998 18.2186C107.228 19.1843 106.343 20.9114 106.343 23.4V27.3557L100.749 28.1357V22.62C100.749 20.2429 101.371 18.2 102.614 16.4914C103.857 14.7457 105.552 13.4271 107.699 12.5357C109.884 11.6071 112.294 11.1429 114.931 11.1429C117.53 11.1429 119.903 11.6071 122.05 12.5357C124.197 13.4271 125.892 14.7457 127.135 16.4914C128.378 18.2 129 20.2429 129 22.62V33.4286H123.293V23.4ZM79.9565 11.1429V16.7143H74.3063V11.1429H79.9565Z" fill="white"/>
</svg>
