<svg width="533" height="308" viewBox="0 0 533 308" fill="none" xmlns="http://www.w3.org/2000/svg">
<path d="M74.8086 77.2676H299.23V231.804H74.8086V77.2676Z" fill="#101010"/>
<path d="M108.168 77.2676H78.8523C76.619 77.2676 74.8086 79.1376 74.8086 81.4444V111.725C74.8086 114.032 76.619 115.902 78.8523 115.902H108.168C110.402 115.902 112.212 114.032 112.212 111.725V81.4444C112.212 79.1376 110.402 77.2676 108.168 77.2676Z" fill="#101010"/>
<path d="M92.4688 97.6581H94.5467V95.5117H92.4688V97.6581Z" fill="white"/>
<path d="M145.571 77.2676H116.255C114.021 77.2676 112.211 79.1376 112.211 81.4444V111.725C112.211 114.032 114.021 115.902 116.255 115.902H145.571C147.804 115.902 149.614 114.032 149.614 111.725V81.4444C149.614 79.1376 147.804 77.2676 145.571 77.2676Z" fill="#101010"/>
<path d="M129.875 97.6581H131.953V95.5117H129.875V97.6581Z" fill="white"/>
<path d="M182.973 77.2676H153.657C151.424 77.2676 149.613 79.1376 149.613 81.4444V111.725C149.613 114.032 151.424 115.902 153.657 115.902H182.973C185.206 115.902 187.017 114.032 187.017 111.725V81.4444C187.017 79.1376 185.206 77.2676 182.973 77.2676Z" fill="#101010"/>
<path d="M167.277 97.6581H169.355V95.5117H167.277V97.6581Z" fill="white"/>
<path d="M220.375 77.2676H191.059C188.826 77.2676 187.016 79.1376 187.016 81.4444V111.725C187.016 114.032 188.826 115.902 191.059 115.902H220.375C222.609 115.902 224.419 114.032 224.419 111.725V81.4444C224.419 79.1376 222.609 77.2676 220.375 77.2676Z" fill="#101010"/>
<path d="M204.68 97.6581H206.758V95.5117H204.68V97.6581Z" fill="white"/>
<path d="M257.782 77.2676H228.466C226.232 77.2676 224.422 79.1376 224.422 81.4444V111.725C224.422 114.032 226.232 115.902 228.466 115.902H257.782C260.015 115.902 261.825 114.032 261.825 111.725V81.4444C261.825 79.1376 260.015 77.2676 257.782 77.2676Z" fill="#101010"/>
<path d="M242.082 97.6581H244.16V95.5117H242.082V97.6581Z" fill="white"/>
<path d="M295.184 77.2676H265.868C263.635 77.2676 261.824 79.1376 261.824 81.4444V111.725C261.824 114.032 263.635 115.902 265.868 115.902H295.184C297.417 115.902 299.228 114.032 299.228 111.725V81.4444C299.228 79.1376 297.417 77.2676 295.184 77.2676Z" fill="#101010"/>
<path d="M279.488 97.6581H281.566V95.5117H279.488V97.6581Z" fill="white"/>
<path d="M108.168 115.902H78.8523C76.619 115.902 74.8086 117.772 74.8086 120.079V150.36C74.8086 152.666 76.619 154.536 78.8523 154.536H108.168C110.402 154.536 112.212 152.666 112.212 150.36V120.079C112.212 117.772 110.402 115.902 108.168 115.902Z" fill="#101010"/>
<path d="M92.4688 136.293H94.5467V134.146H92.4688V136.293Z" fill="white"/>
<path d="M145.571 115.902H116.255C114.021 115.902 112.211 117.772 112.211 120.079V150.36C112.211 152.666 114.021 154.536 116.255 154.536H145.571C147.804 154.536 149.614 152.666 149.614 150.36V120.079C149.614 117.772 147.804 115.902 145.571 115.902Z" fill="#101010"/>
<path d="M129.875 136.293H131.953V134.146H129.875V136.293Z" fill="white"/>
<path d="M182.973 115.902H153.657C151.424 115.902 149.613 117.772 149.613 120.079V150.36C149.613 152.666 151.424 154.536 153.657 154.536H182.973C185.206 154.536 187.017 152.666 187.017 150.36V120.079C187.017 117.772 185.206 115.902 182.973 115.902Z" fill="#101010"/>
<path d="M167.277 136.293H169.355V134.146H167.277V136.293Z" fill="white"/>
<path d="M220.375 115.902H191.059C188.826 115.902 187.016 117.772 187.016 120.079V150.36C187.016 152.666 188.826 154.536 191.059 154.536H220.375C222.609 154.536 224.419 152.666 224.419 150.36V120.079C224.419 117.772 222.609 115.902 220.375 115.902Z" fill="#101010"/>
<path d="M204.68 136.293H206.758V134.146H204.68V136.293Z" fill="white"/>
<path d="M257.782 115.902H228.466C226.232 115.902 224.422 117.772 224.422 120.079V150.36C224.422 152.666 226.232 154.536 228.466 154.536H257.782C260.015 154.536 261.825 152.666 261.825 150.36V120.079C261.825 117.772 260.015 115.902 257.782 115.902Z" fill="#101010"/>
<path d="M242.082 136.293H244.16V134.146H242.082V136.293Z" fill="white"/>
<path d="M295.184 115.902H265.868C263.635 115.902 261.824 117.772 261.824 120.079V150.36C261.824 152.666 263.635 154.536 265.868 154.536H295.184C297.417 154.536 299.228 152.666 299.228 150.36V120.079C299.228 117.772 297.417 115.902 295.184 115.902Z" fill="#101010"/>
<path d="M279.488 136.293H281.566V134.146H279.488V136.293Z" fill="white"/>
<path d="M108.168 154.537H78.8523C76.619 154.537 74.8086 156.407 74.8086 158.714V188.994C74.8086 191.301 76.619 193.171 78.8523 193.171H108.168C110.402 193.171 112.212 191.301 112.212 188.994V158.714C112.212 156.407 110.402 154.537 108.168 154.537Z" fill="#101010"/>
<path d="M92.4688 174.928H94.5467V172.781H92.4688V174.928Z" fill="white"/>
<path d="M145.571 154.537H116.255C114.021 154.537 112.211 156.407 112.211 158.714V188.994C112.211 191.301 114.021 193.171 116.255 193.171H145.571C147.804 193.171 149.614 191.301 149.614 188.994V158.714C149.614 156.407 147.804 154.537 145.571 154.537Z" fill="#101010"/>
<path d="M129.875 174.928H131.953V172.781H129.875V174.928Z" fill="white"/>
<path d="M182.973 154.537H153.657C151.424 154.537 149.613 156.407 149.613 158.714V188.994C149.613 191.301 151.424 193.171 153.657 193.171H182.973C185.206 193.171 187.017 191.301 187.017 188.994V158.714C187.017 156.407 185.206 154.537 182.973 154.537Z" fill="#101010"/>
<path d="M167.277 174.928H169.355V172.781H167.277V174.928Z" fill="white"/>
<path d="M220.375 154.537H191.059C188.826 154.537 187.016 156.407 187.016 158.714V188.994C187.016 191.301 188.826 193.171 191.059 193.171H220.375C222.609 193.171 224.419 191.301 224.419 188.994V158.714C224.419 156.407 222.609 154.537 220.375 154.537Z" fill="#181818"/>
<path d="M204.68 174.928H206.758V172.781H204.68V174.928Z" fill="white"/>
<path d="M257.782 154.537H228.466C226.232 154.537 224.422 156.407 224.422 158.714V188.994C224.422 191.301 226.232 193.171 228.466 193.171H257.782C260.015 193.171 261.825 191.301 261.825 188.994V158.714C261.825 156.407 260.015 154.537 257.782 154.537Z" fill="#101010"/>
<path d="M242.082 174.928H244.16V172.781H242.082V174.928Z" fill="white"/>
<path d="M295.184 154.537H265.868C263.635 154.537 261.824 156.407 261.824 158.714V188.994C261.824 191.301 263.635 193.171 265.868 193.171H295.184C297.417 193.171 299.228 191.301 299.228 188.994V158.714C299.228 156.407 297.417 154.537 295.184 154.537Z" fill="#101010"/>
<path d="M279.488 174.928H281.566V172.781H279.488V174.928Z" fill="white"/>
<path d="M108.168 193.17H78.8523C76.619 193.17 74.8086 195.04 74.8086 197.347V227.627C74.8086 229.934 76.619 231.804 78.8523 231.804H108.168C110.402 231.804 112.212 229.934 112.212 227.627V197.347C112.212 195.04 110.402 193.17 108.168 193.17Z" fill="#101010"/>
<path d="M92.4688 213.56H94.5467V211.414H92.4688V213.56Z" fill="white"/>
<path d="M145.571 193.17H116.255C114.021 193.17 112.211 195.04 112.211 197.347V227.627C112.211 229.934 114.021 231.804 116.255 231.804H145.571C147.804 231.804 149.614 229.934 149.614 227.627V197.347C149.614 195.04 147.804 193.17 145.571 193.17Z" fill="#101010"/>
<path d="M129.875 213.56H131.953V211.414H129.875V213.56Z" fill="white"/>
<path d="M182.973 193.17H153.657C151.424 193.17 149.613 195.04 149.613 197.347V227.627C149.613 229.934 151.424 231.804 153.657 231.804H182.973C185.206 231.804 187.017 229.934 187.017 227.627V197.347C187.017 195.04 185.206 193.17 182.973 193.17Z" fill="#101010"/>
<path d="M167.277 213.56H169.355V211.414H167.277V213.56Z" fill="white"/>
<path d="M220.375 193.17H191.059C188.826 193.17 187.016 195.04 187.016 197.347V227.627C187.016 229.934 188.826 231.804 191.059 231.804H220.375C222.609 231.804 224.419 229.934 224.419 227.627V197.347C224.419 195.04 222.609 193.17 220.375 193.17Z" fill="#101010"/>
<path d="M204.68 213.56H206.758V211.414H204.68V213.56Z" fill="white"/>
<path d="M257.782 193.17H228.466C226.232 193.17 224.422 195.04 224.422 197.347V227.627C224.422 229.934 226.232 231.804 228.466 231.804H257.782C260.015 231.804 261.825 229.934 261.825 227.627V197.347C261.825 195.04 260.015 193.17 257.782 193.17Z" fill="#101010"/>
<path d="M242.082 213.56H244.16V211.414H242.082V213.56Z" fill="white"/>
<path d="M295.184 193.17H265.868C263.635 193.17 261.824 195.04 261.824 197.347V227.627C261.824 229.934 263.635 231.804 265.868 231.804H295.184C297.417 231.804 299.228 229.934 299.228 227.627V197.347C299.228 195.04 297.417 193.17 295.184 193.17Z" fill="#101010"/>
<path d="M279.012 214.054H282.045V210.922H279.012V214.054Z" fill="white"/>
<path d="M299.227 0H532.998V154.537H299.227V0Z" fill="#101010"/>
<path d="M332.586 0H303.27C301.037 0 299.227 1.87001 299.227 4.17678V34.4574C299.227 36.7641 301.037 38.6341 303.27 38.6341H332.586C334.82 38.6341 336.63 36.7641 336.63 34.4574V4.17678C336.63 1.87001 334.82 0 332.586 0Z" fill="#101010"/>
<path d="M316.891 20.3905H318.969V18.2441H316.891V20.3905Z" fill="white"/>
<path d="M369.993 0H340.677C338.443 0 336.633 1.87001 336.633 4.17678V34.4574C336.633 36.7641 338.443 38.6341 340.677 38.6341H369.993C372.226 38.6341 374.036 36.7641 374.036 34.4574V4.17678C374.036 1.87001 372.226 0 369.993 0Z" fill="#101010"/>
<path d="M354.293 20.3905H356.371V18.2441H354.293V20.3905Z" fill="white"/>
<path d="M407.395 0H378.079C375.846 0 374.035 1.87001 374.035 4.17678V34.4574C374.035 36.7641 375.846 38.6341 378.079 38.6341H407.395C409.628 38.6341 411.439 36.7641 411.439 34.4574V4.17678C411.439 1.87001 409.628 0 407.395 0Z" fill="#101010"/>
<path d="M391.699 20.3905H393.777V18.2441H391.699V20.3905Z" fill="white"/>
<path d="M444.797 0H415.481C413.248 0 411.438 1.87001 411.438 4.17678V34.4574C411.438 36.7641 413.248 38.6341 415.481 38.6341H444.797C447.031 38.6341 448.841 36.7641 448.841 34.4574V4.17678C448.841 1.87001 447.031 0 444.797 0Z" fill="#101010"/>
<path d="M429.102 20.3905H431.18V18.2441H429.102V20.3905Z" fill="white"/>
<path d="M482.204 0H452.887C450.654 0 448.844 1.87001 448.844 4.17678V34.4574C448.844 36.7641 450.654 38.6341 452.887 38.6341H482.204C484.437 38.6341 486.247 36.7641 486.247 34.4574V4.17678C486.247 1.87001 484.437 0 482.204 0Z" fill="#101010"/>
<path d="M466.504 20.3905H468.582V18.2441H466.504V20.3905Z" fill="white"/>
<path d="M519.606 0H490.29C488.057 0 486.246 1.87001 486.246 4.17678V34.4574C486.246 36.7641 488.057 38.6341 490.29 38.6341H519.606C521.839 38.6341 523.65 36.7641 523.65 34.4574V4.17678C523.65 1.87001 521.839 0 519.606 0Z" fill="#101010"/>
<path d="M503.91 20.3905H505.988V18.2441H503.91V20.3905Z" fill="white"/>
<path d="M332.586 38.6348H303.27C301.037 38.6348 299.227 40.5048 299.227 42.8115V73.0921C299.227 75.3989 301.037 77.2689 303.27 77.2689H332.586C334.82 77.2689 336.63 75.3989 336.63 73.0921V42.8115C336.63 40.5048 334.82 38.6348 332.586 38.6348Z" fill="#101010"/>
<path d="M316.891 59.0252H318.969V56.8789H316.891V59.0252Z" fill="white"/>
<path d="M369.993 38.6348H340.677C338.443 38.6348 336.633 40.5048 336.633 42.8115V73.0921C336.633 75.3989 338.443 77.2689 340.677 77.2689H369.993C372.226 77.2689 374.036 75.3989 374.036 73.0921V42.8115C374.036 40.5048 372.226 38.6348 369.993 38.6348Z" fill="#101010"/>
<path d="M354.293 59.0252H356.371V56.8789H354.293V59.0252Z" fill="white"/>
<path d="M407.395 38.6348H378.079C375.846 38.6348 374.035 40.5048 374.035 42.8115V73.0921C374.035 75.3989 375.846 77.2689 378.079 77.2689H407.395C409.628 77.2689 411.439 75.3989 411.439 73.0921V42.8115C411.439 40.5048 409.628 38.6348 407.395 38.6348Z" fill="#181818"/>
<path d="M391.699 59.0252H393.777V56.8789H391.699V59.0252Z" fill="white"/>
<path d="M444.797 38.6348H415.481C413.248 38.6348 411.438 40.5048 411.438 42.8115V73.0921C411.438 75.3989 413.248 77.2689 415.481 77.2689H444.797C447.031 77.2689 448.841 75.3989 448.841 73.0921V42.8115C448.841 40.5048 447.031 38.6348 444.797 38.6348Z" fill="#101010"/>
<path d="M429.102 59.0252H431.18V56.8789H429.102V59.0252Z" fill="white"/>
<path d="M482.204 38.6348H452.887C450.654 38.6348 448.844 40.5048 448.844 42.8115V73.0921C448.844 75.3989 450.654 77.2689 452.887 77.2689H482.204C484.437 77.2689 486.247 75.3989 486.247 73.0921V42.8115C486.247 40.5048 484.437 38.6348 482.204 38.6348Z" fill="#101010"/>
<path d="M466.504 59.0252H468.582V56.8789H466.504V59.0252Z" fill="white"/>
<path d="M519.606 38.6348H490.29C488.057 38.6348 486.246 40.5048 486.246 42.8115V73.0921C486.246 75.3989 488.057 77.2689 490.29 77.2689H519.606C521.839 77.2689 523.65 75.3989 523.65 73.0921V42.8115C523.65 40.5048 521.839 38.6348 519.606 38.6348Z" fill="#101010"/>
<path d="M503.91 59.0252H505.988V56.8789H503.91V59.0252Z" fill="white"/>
<path d="M332.586 77.2676H303.27C301.037 77.2676 299.227 79.1376 299.227 81.4444V111.725C299.227 114.032 301.037 115.902 303.27 115.902H332.586C334.82 115.902 336.63 114.032 336.63 111.725V81.4444C336.63 79.1376 334.82 77.2676 332.586 77.2676Z" fill="#101010"/>
<path d="M316.891 97.6581H318.969V95.5117H316.891V97.6581Z" fill="white"/>
<path d="M369.993 77.2676H340.677C338.443 77.2676 336.633 79.1376 336.633 81.4444V111.725C336.633 114.032 338.443 115.902 340.677 115.902H369.993C372.226 115.902 374.036 114.032 374.036 111.725V81.4444C374.036 79.1376 372.226 77.2676 369.993 77.2676Z" fill="#101010"/>
<path d="M354.293 97.6581H356.371V95.5117H354.293V97.6581Z" fill="white"/>
<path d="M407.395 77.2676H378.079C375.846 77.2676 374.035 79.1376 374.035 81.4444V111.725C374.035 114.032 375.846 115.902 378.079 115.902H407.395C409.628 115.902 411.439 114.032 411.439 111.725V81.4444C411.439 79.1376 409.628 77.2676 407.395 77.2676Z" fill="#101010"/>
<path d="M391.699 97.6581H393.777V95.5117H391.699V97.6581Z" fill="white"/>
<path d="M444.797 77.2676H415.481C413.248 77.2676 411.438 79.1376 411.438 81.4444V111.725C411.438 114.032 413.248 115.902 415.481 115.902H444.797C447.031 115.902 448.841 114.032 448.841 111.725V81.4444C448.841 79.1376 447.031 77.2676 444.797 77.2676Z" fill="#101010"/>
<path d="M429.102 97.6581H431.18V95.5117H429.102V97.6581Z" fill="white"/>
<path d="M482.204 77.2676H452.887C450.654 77.2676 448.844 79.1376 448.844 81.4444V111.725C448.844 114.032 450.654 115.902 452.887 115.902H482.204C484.437 115.902 486.247 114.032 486.247 111.725V81.4444C486.247 79.1376 484.437 77.2676 482.204 77.2676Z" fill="#101010"/>
<path d="M466.504 97.6581H468.582V95.5117H466.504V97.6581Z" fill="white"/>
<path d="M519.606 77.2676H490.29C488.057 77.2676 486.246 79.1376 486.246 81.4444V111.725C486.246 114.032 488.057 115.902 490.29 115.902H519.606C521.839 115.902 523.65 114.032 523.65 111.725V81.4444C523.65 79.1376 521.839 77.2676 519.606 77.2676Z" fill="#101010"/>
<path d="M503.91 97.6581H505.988V95.5117H503.91V97.6581Z" fill="white"/>
<path d="M332.586 115.902H303.27C301.037 115.902 299.227 117.772 299.227 120.079V150.36C299.227 152.666 301.037 154.536 303.27 154.536H332.586C334.82 154.536 336.63 152.666 336.63 150.36V120.079C336.63 117.772 334.82 115.902 332.586 115.902Z" fill="#101010"/>
<path d="M316.891 136.293H318.969V134.146H316.891V136.293Z" fill="white"/>
<path d="M369.993 115.902H340.677C338.443 115.902 336.633 117.772 336.633 120.079V150.36C336.633 152.666 338.443 154.536 340.677 154.536H369.993C372.226 154.536 374.036 152.666 374.036 150.36V120.079C374.036 117.772 372.226 115.902 369.993 115.902Z" fill="#101010"/>
<path d="M354.293 136.293H356.371V134.146H354.293V136.293Z" fill="white"/>
<path d="M407.395 115.902H378.079C375.846 115.902 374.035 117.772 374.035 120.079V150.36C374.035 152.666 375.846 154.536 378.079 154.536H407.395C409.628 154.536 411.439 152.666 411.439 150.36V120.079C411.439 117.772 409.628 115.902 407.395 115.902Z" fill="#101010"/>
<path d="M391.699 136.293H393.777V134.146H391.699V136.293Z" fill="white"/>
<path d="M444.797 115.902H415.481C413.248 115.902 411.438 117.772 411.438 120.079V150.36C411.438 152.666 413.248 154.536 415.481 154.536H444.797C481.5 190 448.841 152.666 448.841 150.36V120.079C448.841 117.772 447.031 115.902 444.797 115.902Z" fill="#101010"/>
<path d="M429.102 136.293H431.18V134.146H429.102V136.293Z" fill="white"/>
<path d="M482.204 115.902H452.887C450.654 115.902 448.844 117.772 448.844 120.079V150.36C448.844 152.666 450.654 154.536 452.887 154.536H482.204C484.437 154.536 486.247 152.666 486.247 150.36V120.079C486.247 117.772 484.437 115.902 482.204 115.902Z" fill="#101010"/>
<path d="M466.504 136.293H468.582V134.146H466.504V136.293Z" fill="white"/>
<path d="M519.606 115.902H490.29C488.057 115.902 486.246 117.772 486.246 120.079V150.36C486.246 152.666 488.057 154.536 490.29 154.536H519.606C521.839 154.536 523.65 152.666 523.65 150.36V120.079C523.65 117.772 521.839 115.902 519.606 115.902Z" fill="#101010"/>
<path d="M503.91 136.293H505.988V134.146H503.91V136.293Z" fill="white"/>
<path d="M333.08 154.537H302.777C300.816 154.537 299.227 156.179 299.227 158.204V189.504C299.227 191.529 300.816 193.171 302.777 193.171H333.08C335.041 193.171 336.63 191.529 336.63 189.504V158.204C336.63 156.179 335.041 154.537 333.08 154.537Z" fill="#C6FC2B"/>
<path d="M321.71 185.123V179.948H311.66V176.332L320.443 162.398H322.585L313.652 176.8V178.077H321.71V172.03H323.702V185.123H321.71Z" fill="white"/>
<path d="M370.361 154.537H340.058C338.097 154.537 336.508 156.179 336.508 158.204V189.504C336.508 191.529 338.097 193.171 340.058 193.171H370.361C372.322 193.171 373.911 191.529 373.911 189.504V158.204C373.911 156.179 372.322 154.537 370.361 154.537Z" fill="#6300DB"/>
<path d="M358.987 185.123V179.948H348.938V176.332L357.72 162.398H359.862L350.929 176.8V178.077H358.987V172.03H360.979V185.123H358.987Z" fill="white"/>
<path d="M295.678 193.17H265.374C263.414 193.17 261.824 194.812 261.824 196.837V228.137C261.824 230.162 263.414 231.804 265.374 231.804H295.678C297.638 231.804 299.228 230.162 299.228 228.137V196.837C299.228 194.812 297.638 193.17 295.678 193.17Z" fill="#2B2B2B"/>
<path d="M274.105 227.185L284.849 197.883H286.962L276.218 227.185H274.105Z" fill="white"/>
<path d="M407.888 231.805H377.585C375.625 231.805 374.035 233.446 374.035 235.472V266.772C374.035 268.797 375.625 270.439 377.585 270.439H407.888C409.849 270.439 411.439 268.797 411.439 266.772V235.472C411.439 233.446 409.849 231.805 407.888 231.805Z" fill="#2B2B2B"/>
<path d="M386.316 265.819L397.06 236.518H399.173L388.429 265.819H386.316Z" fill="white"/>
<path d="M295.678 269.365H265.374C263.414 269.365 261.824 271.007 261.824 273.032V304.332C261.824 306.358 263.414 307.999 265.374 307.999H295.678C297.638 307.999 299.228 306.358 299.228 304.332V273.032C299.228 271.007 297.638 269.365 295.678 269.365Z" fill="#2B2B2B"/>
<path d="M274.105 303.38L284.849 274.078H286.962L276.218 303.38H274.105Z" fill="white"/>
<path d="M370.486 193.17H340.183C338.222 193.17 336.633 194.812 336.633 196.837V228.137C336.633 230.162 338.222 231.804 340.183 231.804H370.486C372.447 231.804 374.036 230.162 374.036 228.137V196.837C374.036 194.812 372.447 193.17 370.486 193.17Z" fill="#6300DB"/>
<path d="M355.37 224.067C354.042 224.067 352.895 223.797 351.928 223.256C350.979 222.733 350.202 221.93 349.696 220.95C349.193 219.932 348.941 218.736 348.941 217.365V207.389C348.941 205.998 349.193 204.803 349.696 203.805C350.202 202.825 350.979 202.022 351.928 201.499C352.895 200.958 354.042 200.688 355.37 200.688C356.678 200.688 357.804 200.958 358.749 201.499C359.694 202.017 360.463 202.822 360.952 203.805C361.476 204.803 361.738 205.998 361.738 207.389V217.365C361.738 218.736 361.476 219.932 360.952 220.95C360.463 221.933 359.694 222.738 358.749 223.256C357.804 223.797 356.678 224.067 355.37 224.067ZM355.37 222.166C356.697 222.166 357.744 221.74 358.508 220.888C359.293 220.014 359.686 218.84 359.686 217.365V207.389C359.686 205.915 359.293 204.751 358.508 203.898C357.744 203.026 356.697 202.589 355.37 202.589C354.021 202.589 352.955 203.026 352.171 203.898C351.386 204.751 350.993 205.915 350.993 207.389V217.365C350.993 218.82 351.386 219.983 352.171 220.857C352.955 221.729 354.021 222.166 355.37 222.166ZM355.34 213.998C354.856 213.998 354.464 213.842 354.162 213.531C353.86 213.199 353.709 212.783 353.709 212.284C353.709 211.765 353.86 211.359 354.162 211.068C354.464 210.756 354.856 210.6 355.34 210.6C355.842 210.6 356.234 210.756 356.517 211.068C356.818 211.359 356.969 211.765 356.969 212.284C356.969 212.783 356.818 213.199 356.517 213.531C356.234 213.842 355.842 213.998 355.34 213.998Z" fill="white"/>
<path d="M0 77.2676H74.807V115.902H0V77.2676Z" fill="#101010"/>
<path d="M33.3598 77.2676H4.04373C1.81044 77.2676 0 79.1376 0 81.4444V111.725C0 114.032 1.81044 115.902 4.04373 115.902H33.3598C35.5931 115.902 37.4035 114.032 37.4035 111.725V81.4444C37.4035 79.1376 35.5931 77.2676 33.3598 77.2676Z" fill="#101010"/>
<path d="M17.6641 97.6581H19.742V95.5117H17.6641V97.6581Z" fill="white"/>
<path d="M70.7621 77.2676H41.4461C39.2128 77.2676 37.4023 79.1376 37.4023 81.4444V111.725C37.4023 114.032 39.2128 115.902 41.4461 115.902H70.7621C72.9954 115.902 74.8059 114.032 74.8059 111.725V81.4444C74.8059 79.1376 72.9954 77.2676 70.7621 77.2676Z" fill="#101010"/>
<path d="M55.0664 97.6581H57.1444V95.5117H55.0664V97.6581Z" fill="white"/>
</svg>
