<svg width="325" height="325" viewBox="0 0 325 325" fill="none" xmlns="http://www.w3.org/2000/svg">
<rect x="0.5" y="98.5" width="64" height="64" fill="white" stroke="#6300DB"/>
<rect x="65" y="131" width="65" height="65" fill="#6300DB"/>
<rect y="163" width="65" height="65" fill="white"/>
<path d="M37.4062 209.031L31.75 200.062L26.25 208.781L22.125 205.875L28.3125 197.312L19.0625 194.531L20.5938 189.719L29.8438 193.188L29.5312 182.5H34.5625L34.25 193.375L43.4062 189.938L44.9062 194.812L35.4688 197.594L41.5 206.031L37.4062 209.031Z" fill="#C6FC2B"/>
<rect x="65.5" y="195.5" width="64" height="64" fill="#6300DB" stroke="#C6FC2B"/>
<path d="M78.6094 169.391V165.781H90.0703V169.391H78.6094ZM96.6328 179.961V175.367L110.648 169.789L112.617 169.391V169.25L110.648 168.781L96.6328 163.297V158.727L116.672 167.586V171.078L96.6328 179.961Z" fill="#131313"/>
<rect x="130.5" y="195.5" width="64" height="64" fill="white" stroke="#6300DB"/>
<rect x="130" y="260" width="65" height="65" fill="#6300DB"/>
<rect x="65" y="66" width="65" height="65" fill="#C6FC2B"/>
<path d="M87 115.93L101.25 78.875H105.141L90.9141 115.93H87Z" fill="#0C0C0C"/>
<path d="M152 314.93L166.25 277.875H170.141L155.914 314.93H152Z" fill="white"/>
<rect x="130.5" y="65.5" width="64" height="64" fill="white" stroke="#C6FC2B"/>
<rect x="195" y="94" width="65" height="65" fill="#6300DB"/>
<rect x="130" y="130" width="65" height="65" fill="white"/>
<rect x="195.5" y="158.5" width="64" height="64" fill="#C6FC2B" stroke="white"/>
<path d="M208.609 132.391V128.781H220.07V132.391H208.609ZM226.633 142.961V138.367L240.648 132.789L242.617 132.391V132.25L240.648 131.781L226.633 126.297V121.727L246.672 130.586V134.078L226.633 142.961Z" fill="#131313"/>
<rect x="260.5" y="158.5" width="64" height="64" fill="white" stroke="#6300DB"/>
<rect x="260" y="223" width="65" height="65" fill="#6300DB"/>
<rect x="195" y="29" width="65" height="65" fill="white"/>
<path d="M217 78.9297L231.25 41.875H235.141L220.914 78.9297H217Z" fill="#0C0C0C"/>
<path d="M282 277.93L296.25 240.875H300.141L285.914 277.93H282Z" fill="#C6FC2B"/>
<path d="M288.695 203.773L292.938 197.047L297.062 203.586L300.156 201.406L295.516 194.984L302.453 192.898L301.305 189.289L294.367 191.891L294.602 183.875H290.828L291.062 192.031L284.195 189.453L283.07 193.109L290.148 195.195L285.625 201.523L288.695 203.773Z" fill="#0C0C0C"/>
</svg>
