<svg width="60" height="72" viewBox="0 0 60 72" fill="none" xmlns="http://www.w3.org/2000/svg">
<g clip-path="url(#clip0_611_3581)">
<g clip-path="url(#clip1_611_3581)">
<mask id="mask0_611_3581" style="mask-type:luminance" maskUnits="userSpaceOnUse" x="-3" y="9" width="55" height="54">
<path d="M51.3594 9.35938H-2.64062V62.6394H51.3594V9.35938Z" fill="white"/>
</mask>
<g mask="url(#mask0_611_3581)">
<path d="M50.8318 9.35938L46.0089 57.306L24.3284 62.6394L2.70827 57.3135L-2.10938 9.35938H50.8318Z" fill="#264DE4"/>
<path d="M41.8776 54.2516L45.9996 13.2793H24.3594V58.5609L41.8776 54.2516Z" fill="#2965F1"/>
<path d="M8.92978 31.0608L9.52273 36.9418H24.3547V31.0597L8.92978 31.0608ZM24.3537 19.1602H7.73438L8.33683 25.0423H24.3537V19.1602ZM24.3558 52.4634V46.3436L24.3272 46.35L16.9461 44.5811L16.4739 39.8914H9.82026L10.7488 49.1259L24.3261 52.4697L24.3558 52.4634Z" fill="#EBEBEB"/>
<path d="M32.4973 36.9431L31.7286 44.5706L24.3359 46.3417V52.4603L37.9238 49.1186L38.0233 48.1255L39.5798 32.6423L39.7429 31.062L40.9394 19.1582H24.337V25.0403H33.6758L33.0723 31.062H24.337V36.9441L32.4973 36.9431Z" fill="white"/>
</g>
<mask id="mask1_611_3581" style="mask-type:luminance" maskUnits="userSpaceOnUse" x="-3" y="9" width="55" height="54">
<path d="M51.3594 9.35938H-2.64062V62.6394H51.3594V9.35938Z" fill="white"/>
</mask>
<g mask="url(#mask1_611_3581)">
<path d="M50.8318 9.35938L46.0089 57.306L24.3284 62.6394L2.70827 57.3135L-2.10938 9.35938H50.8318Z" fill="#5C5C5C"/>
<path d="M41.8776 54.2516L45.9996 13.2793H24.3594V58.5609L41.8776 54.2516Z" fill="#888888"/>
<path d="M8.92978 31.0608L9.52273 36.9418H24.3547V31.0597L8.92978 31.0608ZM24.3537 19.1602H7.73438L8.33683 25.0423H24.3537V19.1602ZM24.3558 52.4634V46.3436L24.3272 46.35L16.9461 44.5811L16.4739 39.8914H9.82026L10.7488 49.1259L24.3261 52.4697L24.3558 52.4634Z" fill="#EBEBEB"/>
<path d="M32.4973 36.9431L31.7286 44.5706L24.3359 46.3417V52.4603L37.9238 49.1186L38.0233 48.1255L39.5798 32.6423L39.7429 31.062L40.9394 19.1582H24.337V25.0403H33.6758L33.0723 31.062H24.337V36.9441L32.4973 36.9431Z" fill="white"/>
</g>
</g>
</g>
<defs>
<clipPath id="clip0_611_3581">
<rect width="60" height="72" fill="white"/>
</clipPath>
<clipPath id="clip1_611_3581">
<rect width="60" height="72" fill="white"/>
</clipPath>
</defs>
</svg>
