<svg width="72" height="72" viewBox="0 0 72 72" fill="none" xmlns="http://www.w3.org/2000/svg">
<g clip-path="url(#clip0_611_3632)">
<mask id="mask0_611_3632" style="mask-type:luminance" maskUnits="userSpaceOnUse" x="4" y="6" width="64" height="60">
<path d="M67.0096 6.74023H4.99219V65.2472H67.0096V6.74023Z" fill="white"/>
</mask>
<g mask="url(#mask0_611_3632)">
<path d="M23.5249 58.8396C21.1624 56.8738 18.6419 54.9899 16.9206 52.3372C13.2967 47.6578 10.5059 42.2412 8.59857 36.5485C7.44598 32.8473 7.05047 28.8794 5.5644 25.3198C4.01045 22.7362 5.83119 19.9103 8.50847 19.0888C9.69967 18.8466 11.7966 17.6578 9.26672 18.5073C6.99899 20.2683 6.779 16.9112 9.1029 16.6982C10.6919 16.4759 11.2758 15.101 10.7329 13.8642C9.02918 12.6894 14.8635 11.3975 11.9276 9.64348C8.87004 6.15412 16.2068 5.48246 14.3966 9.44456C13.9637 12.4928 19.5218 8.8864 18.2323 12.405C19.5429 14.0959 23.1422 12.7912 23.0533 15.1607C24.963 15.3011 25.6182 17.0001 27.4121 17.13C29.2702 18.0182 32.6379 18.7167 33.271 20.9318C31.4268 22.4752 27.1581 17.7432 26.9522 22.0154C27.5104 28.3271 27.3676 34.8284 29.5522 40.8394C30.5843 44.4785 33.0884 47.3442 35.3491 50.1783C37.5139 52.9538 40.4439 54.908 43.4313 56.5544C46.0512 57.8614 48.8759 58.7285 51.7311 59.2714C52.8895 58.3353 54.9349 54.8518 56.7416 56.3203C56.827 57.9702 53.1551 59.7699 56.5684 59.5874C58.5729 58.9485 59.963 61.2267 61.6141 59.172C63.1352 61.077 67.934 57.955 66.8528 61.8481C65.3901 62.8462 63.2558 62.2436 61.7896 63.6162C59.3732 62.3407 57.4495 64.7582 54.7746 64.4528C51.8048 65.0145 48.7835 65.2426 45.7704 65.2473C40.83 64.8343 35.7844 64.6611 31.084 62.8415C28.4359 62.0271 25.8523 60.4345 23.5249 58.8396ZM27.6976 60.7517C30.2836 61.9335 32.8111 63.1797 35.6452 63.5553C40.1408 64.2176 44.784 65.2345 49.2948 64.3065C47.2529 63.3318 45.1408 64.6857 43.1083 63.6091C40.6686 64.1649 38.0498 63.4687 35.5691 63.1247C32.7491 61.7954 29.7044 60.8827 27.0634 59.1579C23.7636 57.8825 28.7706 60.7926 29.6611 61.029C31.7252 62.267 27.3933 60.3936 26.7825 59.8787C25.0542 58.8537 24.8342 59.0678 26.6117 60.1092C26.9686 60.3304 27.322 60.5621 27.6976 60.7517ZM22.7783 57.0739C25.2824 58.0557 22.7666 55.211 21.6199 55.376C21.1097 54.4423 19.6751 53.8537 20.6873 53.3517C18.8665 54.021 18.7799 50.8102 17.9246 51.2688C15.9985 50.6253 17.1757 48.3482 14.881 46.9487C14.6704 45.4743 12.6016 44.1954 11.9417 41.9721C11.6491 40.8335 9.60138 37.5642 10.8604 40.6065C11.9311 43.5354 13.8139 46.0442 15.3819 48.5494C16.5988 50.9354 18.0369 53.4289 20.2532 54.9173C21.002 55.6756 21.7228 56.8364 22.7783 57.0739ZM15.5586 48.6934C15.6463 48.2932 16.0173 49.5593 15.5586 48.6934V48.6934ZM25.7774 58.2511C24.9793 57.9199 26.332 57.9878 25.7774 58.2511V58.2511ZM27.1371 58.7753C26.5169 59.1802 26.9967 58.051 27.1371 58.7753V58.7753ZM28.8396 59.5265C27.5911 59.0117 29.6505 58.7098 28.8396 59.5265V59.5265ZM31.758 61.2466C30.1818 60.9553 32.2494 60.4767 31.758 61.2466V61.2466ZM26.1553 57.116C24.5288 57.1043 27.4132 56.2548 26.1553 57.116V57.116ZM27.4308 57.7889C26.9768 57.9936 27.3957 57.3337 27.4308 57.7889V57.7889ZM33.8151 62.0014C34.8413 62.6871 39.8062 63.5027 36.6971 62.2822C36.1764 62.3992 30.9318 60.7142 33.8151 62.0014ZM23.6817 53.6559C22.0879 53.1528 23.5822 53.1996 23.6817 53.6559V53.6559ZM26.6538 55.4872C25.0472 55.0472 27.4261 54.9173 26.6538 55.4872V55.4872ZM29.1521 57.1078C27.3524 56.6632 30.2625 56.6655 29.1521 57.1078V57.1078ZM22.4729 52.2635C23.6758 53.2394 27.329 52.3887 24.3159 51.6807C22.9456 50.9084 19.8553 50.3784 21.9616 52.1465L22.4717 52.2635H22.4729ZM30.8453 57.6683C28.7425 57.1523 31.3472 56.7638 30.8453 57.6683V57.6683ZM28.3014 55.5293C31.2454 56.4104 25.8254 53.56 27.5747 55.2052L27.962 55.3912L28.3014 55.5293ZM33.4032 58.6477C30.8839 58.2405 36.1905 58.6758 33.4032 58.6477V58.6477ZM21.3999 50.5574C20.7118 50.6042 21.2899 50.0074 21.3999 50.5574V50.5574ZM38.1188 61.4455C37.2096 62.1827 38.1937 60.4533 38.1188 61.4455V61.4455ZM26.16 53.6384C25.2894 53.6173 25.9915 53.1165 26.16 53.6384V53.6384ZM21.6667 50.2122C19.475 49.4668 23.2674 50.1104 21.6667 50.2122V50.2122ZM16.3425 46.5731C14.6002 45.1139 16.1436 45.7622 16.3425 46.5731V46.5731ZM30.3187 55.9529C30.0262 55.5995 30.1806 56.0301 30.3187 55.9529V55.9529ZM39.0175 61.5988C38.5436 61.8036 38.9894 61.0582 39.0175 61.5988V61.5988ZM29.5487 55.1128C28.1832 54.9021 29.7055 54.4165 29.5487 55.1128V55.1128ZM23.0685 50.7692C21.1612 49.9173 24.2585 50.6346 23.0685 50.7692V50.7692ZM34.0304 57.9726C32.2225 57.5934 35.8862 57.1956 34.0304 57.9726V57.9726ZM28.3283 53.8794C30.4673 54.172 25.7832 52.3407 27.8591 53.7156L28.3271 53.8794H28.3283ZM35.7622 58.7133C37.7584 57.4507 37.1008 61.6702 39.1497 59.0702C41.1717 57.5092 37.4039 60.9997 39.8951 59.3475C41.6971 58.0732 44.3592 59.9524 46.0395 60.5644C47.2483 60.5024 48.4243 61.6702 49.6634 60.9599C52.0505 60.2813 44.9981 59.9524 46.8469 58.746C44.6634 59.4177 43.051 57.9457 41.9756 56.4666C39.5277 55.8687 36.6959 54.5441 35.4743 52.2529C34.9758 51.3917 36.194 52.3735 35.0437 50.9658C33.5682 49.5792 32.831 48.0042 31.841 46.3168C30.6569 45.6487 30.5188 43.684 30.3994 46.2501C30.41 44.6306 28.9719 43.5401 28.6208 43.9929C28.6138 42.4331 30.1584 43.2148 29.0772 42.061C28.8443 40.4439 28.0779 38.7589 27.8474 36.9335C27.4893 36.0535 27.797 34.1684 26.6257 36.1612C26.1986 38.2663 26.4841 33.5728 27.1476 35.1209C28.0182 33.5412 26.834 33.7285 26.786 33.9473C27.3536 32.6145 27.1453 30.7247 26.6374 31.4455C26.9417 30.0332 27.116 26.2489 26.1858 26.9194C26.7498 25.4427 27.2553 20.1619 24.8062 22.1757C23.8139 22.1897 22.0961 22.556 21.284 22.9831C23.8314 24.468 21.0278 23.5202 19.991 23.2838C19.8565 24.6575 18.8291 24.0631 17.5466 24.0771C19.5955 24.3451 16.5497 26.2934 15.3737 25.5363C13.8478 26.3086 16.6912 28.2335 15.4041 28.8291C15.5621 29.7266 13.0662 28.505 13.2627 30.5773C11.7802 29.9185 13.058 33.0369 13.7987 31.9814C16.3203 32.7034 15.5738 34.3486 15.637 35.9108C15.2274 36.8211 13.6103 33.7706 15.2777 33.9122C13.9625 31.6526 13.8221 33.0954 12.7292 34.1462C12.4752 34.2211 15.5176 35.6393 13.6079 36.3402C15.2883 36.614 15.3362 38.1691 15.6791 39.1521C16.6877 40.2637 16.4806 37.9234 17.6894 39.2609C16.9241 38.0708 13.6407 35.9061 16.2852 36.6C16.27 35.4018 15.8055 34.4352 16.6164 34.4586C17.4191 32.9222 15.7762 38.2475 17.5852 36.2946C18.0849 36.0641 18.2089 34.7558 19.1099 36.4174C20.417 37.7783 19.5815 38.7636 17.7374 37.5174C18.0673 38.7015 20.204 39.1251 19.8026 40.9751C20.2286 42.6028 20.8242 42.0049 21.3426 41.9101C21.7498 43.4909 21.9814 42.3278 22.0013 41.5754C23.8654 41.9967 23.4289 43.1633 24.0128 43.9777C25.2976 44.5909 22.1722 39.8202 24.3791 42.5431C26.6995 44.7594 25.2496 45.6838 23.1668 45.3292C24.4844 45.2169 24.9103 47.2131 26.559 47.1429C28.0627 47.9 29.0807 50.8055 26.4888 49.5955C25.5902 48.739 22.4086 47.6812 25.0074 49.3124C27.4062 50.4872 29.3124 51.1904 31.6269 52.6648C33.2838 53.9169 33.9988 55.3479 34.626 55.6311C33.2335 56.3344 30.431 55.0695 32.5127 54.6833C31.2138 54.4317 29.7547 53.7378 30.9974 55.4486C32.0552 56.3824 34.7442 56.2841 35.2263 56.3882C34.8167 57.3407 34.117 57.4168 35.2426 57.4905C33.9859 58.1984 35.6452 58.3096 35.7622 58.7133ZM33.1926 51.0372C32.4273 50.1935 32.2295 48.6091 33.0568 49.9875C33.4804 50.1677 34.4142 52.5747 33.1926 51.0372ZM41.5614 56.6608C41.5754 57.0435 42.0388 56.6281 41.5614 56.6608V56.6608ZM31.985 48.9648C31.9557 47.687 32.2611 49.9513 31.985 48.9648V48.9648ZM31.1542 47.7807C30.1911 45.816 32.3653 48.3376 31.1542 47.7807V47.7807ZM21.0723 40.424C21.3507 41.4455 21.6374 40.2649 21.0723 40.424V40.424ZM29.0947 45.0226C29.4423 43.6442 29.5031 46.1787 29.0947 45.0226V45.0226ZM23.4277 40.8546C23.0276 40.094 24.2632 41.5684 23.4277 40.8546V40.8546ZM28.292 42.5045C27.3805 40.3444 28.9356 41.325 28.4933 42.8567L28.292 42.5045ZM19.9033 36.5883C19.4961 35.8792 18.8221 33.801 19.0385 33.1668C19.2351 34.2 21.1167 37.6133 19.963 34.5803C18.6863 32.0388 21.4876 35.4064 21.7767 36.0395C21.9101 36.6714 20.988 35.8675 21.6129 37.3465C20.4743 35.6627 20.94 38.2768 19.9045 36.5883H19.9033ZM17.3114 34.6985C17.4167 33.0521 17.9047 35.8277 17.3114 34.6985V34.6985ZM18.4769 35.1233C19.0339 33.8806 19.4212 36.8551 18.4769 35.1233V35.1233ZM15.6721 32.8286C14.7067 31.8141 14.0081 30.8792 15.7177 32.1991C16.3765 32.226 14.255 30.0729 15.8757 31.5157C17.5806 31.8434 16.7182 34.4715 15.6721 32.8286ZM17.1464 32.7877C17.4425 33.3657 17.7058 32.2003 17.1464 32.7877V32.7877ZM18.0521 33.0954C17.2026 31.4104 19.083 33.801 18.0521 33.0954V33.0954ZM16.2501 31.2735C13.4441 28.6325 19.7757 32.6543 16.7076 31.7626L16.2501 31.2735ZM24.289 36.2127C23.0744 35.4439 23.9672 30.7926 24.3814 33.973C25.5621 33.5693 24.3159 35.6159 25.197 35.5972C25.0566 36.8878 24.6634 37.3524 24.289 36.2127ZM27.2623 38.072C27.3816 36.6702 27.5127 39.0292 27.2623 38.072V38.072ZM26.7463 37.5326C26.7591 38.237 26.8797 36.9335 26.7463 37.5326V37.5326ZM16.8001 30.4064C14.9981 27.776 22.0388 33.0662 17.955 31.0734C17.5279 30.9552 17.0142 30.9131 16.8001 30.4064ZM22.5256 33.6161C22.3559 31.4022 22.907 33.9835 22.5256 33.6161V33.6161ZM26.8738 36.5649C26.8984 37.4004 27.2096 35.3035 26.8738 36.5649V36.5649ZM17.0762 29.4013C18.1481 29.1602 21.5157 31.3917 18.4219 30.0402C18.079 29.6376 17.3454 29.8202 17.0762 29.4013ZM26.2759 34.2515C26.3905 31.9873 26.9159 32.8988 26.2794 34.5756L26.2759 34.2515ZM17.8743 28.6138C18.3096 27.9374 16.7147 25.5527 18.1036 27.7596C18.7039 28.2627 19.8413 28.6032 18.8373 28.8162C20.417 30.2894 18.4511 29.2141 17.8731 28.6149L17.8743 28.6138ZM25.8207 33.5436C26.0875 35.0554 26.1226 30.9646 25.8207 33.5436V33.5436ZM16.9627 26.2314C17.1382 26.7018 17.2962 26.0804 16.9627 26.2314V26.2314ZM19.0339 27.5361C19.5675 26.3531 20.018 28.856 19.0339 27.5361V27.5361ZM24.8811 30.9763C24.8752 30.5211 24.991 31.6374 24.8811 30.9763V30.9763ZM24.5417 30.1829C23.7308 28.065 25.2976 31.3039 24.5417 30.1829V30.1829ZM24.0444 28.7951C23.9075 27.9199 24.5066 29.8951 24.0444 28.7951V28.7951ZM24.8553 27.4003C24.2983 26.3624 25.5586 22.8274 25.699 25.0191C25.1116 26.7287 25.5293 27.6847 25.94 25.3936C26.6971 23.5892 25.7762 28.9519 24.8553 27.4003ZM25.6885 22.1417C25.7423 22.522 25.9318 21.827 25.6885 22.1417V22.1417ZM24.296 51.146C23.9672 50.8417 24.3381 51.3391 24.296 51.146V51.146ZM27.164 52.6789C28.7589 53.1118 28.7507 52.4168 27.3091 52.2108C26.5345 51.4479 24.0877 50.6381 26.2782 52.116C26.4221 52.5045 26.8808 52.4952 27.164 52.6789ZM21.5005 48.7016C22.3805 49.3955 24.8108 50.6651 22.7526 48.966C23.4465 48.113 21.4256 47.659 22.0961 47.0891C20.3901 45.9857 20.7505 46.0828 21.9452 46.1179C19.8951 45.149 22.2412 45.2216 22.1312 44.7254C21.3402 44.5604 18.2042 43.251 20.0484 44.8319C18.1738 43.8209 19.6026 45.2087 19.035 45.0624C17.1172 44.5089 20.7434 46.607 18.7308 46.0863C19.8307 47.0084 21.6924 48.4476 19.1965 47.0622C18.8665 47.563 20.9822 48.3213 21.5017 48.7016H21.5005ZM24.4996 50.5235C22.7128 49.0058 28.1469 51.7662 24.4996 50.5235V50.5235ZM39.8518 60.3585C39.3522 61.0114 39.8986 59.5932 39.8518 60.3585V60.3585ZM41.4292 61.0606C42.2705 60.1982 41.4631 62.4331 42.8228 60.8499C42.838 59.7149 42.7807 59.0456 41.2607 60.4228C40.8418 60.6686 40.6534 61.7147 41.4292 61.0606ZM16.3835 44.427C14.5721 43.3575 16.1249 43.3529 16.3835 44.427V44.427ZM18.0685 45.5937C15.8359 44.6014 17.4425 44.4972 18.0685 45.5937V45.5937ZM27.6519 51.7065C28.5881 52.5864 31.951 52.3524 28.7893 51.8153C28.3213 51.0828 25.816 51.2595 27.6519 51.7065ZM40.8277 60.3129C39.4329 60.8827 42.2693 59.0339 40.8277 60.3129V60.3129ZM43.8233 62.4893C43.2031 62.6683 43.8326 62.0798 43.8233 62.4893V62.4893ZM43.8291 61.9159C42.2834 62.0213 45.424 60.128 43.8291 61.9159V61.9159ZM12.24 40.7575C10.8803 38.7062 11.3952 37.7853 10.0846 36.1109C9.8354 34.8296 7.83564 31.9229 9.04907 35.0016C10.1607 36.8036 10.4919 39.5897 12.24 40.7575ZM43.3283 61.3473C42.1242 60.4732 46.263 59.3416 43.3283 61.3473V61.3473ZM45.5679 62.2752C44.6389 61.9955 47.0376 60.9412 45.5679 62.2752V62.2752ZM15.8839 42.1593C14.798 42.0751 16.3051 41.4982 15.8839 42.1593V42.1593ZM45.1011 61.6421C46.5239 60.6709 44.7734 60.8207 44.8436 61.7299L45.1011 61.6421ZM25.7938 48.7706C25.0414 48.8268 25.7446 48.1153 25.7938 48.7706V48.7706ZM26.9861 49.4973C26.4034 49.6248 26.607 48.6863 26.9861 49.4973V49.4973ZM47.384 62.2962C49.2071 60.9061 46.2794 62.0306 47.0014 62.5607L47.384 62.2962ZM46.6866 61.9405C45.1186 62.5232 48.1703 60.6241 46.6866 61.9405V61.9405ZM50.252 64.4516C49.0409 64.2235 51.249 63.7449 50.252 64.4516V64.4516ZM16.7977 41.6819C18.1352 41.999 22.1382 45.1631 19.7769 41.9019C18.5658 41.5228 19.2925 38.395 18.058 38.9484C18.8864 40.4111 18.739 41.0348 17.0002 40.1116C14.8143 38.9836 15.7715 40.6709 16.1998 41.1366C15.6171 41.277 16.9697 41.6714 16.7977 41.6819ZM10.7107 36.5976C10.9494 35.5504 8.5073 30.8406 9.55691 34.2363C9.93604 34.9489 9.89742 36.2969 10.7107 36.5976ZM21.8855 43.8829C21.1963 43.2745 21.8516 43.7975 21.8855 43.8829V43.8829ZM23.5787 44.2995C21.7065 43.8502 23.5787 43.1914 23.5787 44.2995V44.2995ZM38.2639 54.09C37.1558 54.0725 37.9831 53.3318 38.2639 54.09V54.09ZM38.9684 54.6342C38.5611 54.7161 38.8642 54.2106 38.9684 54.6342V54.6342ZM44.7886 58.5108C44.0901 58.4558 45.3491 58.0744 44.7886 58.5108V58.5108ZM13.7507 37.4191C12.0353 36.951 15.3526 36.7638 13.7507 37.4191V37.4191ZM36.9709 52.8883C35.9494 53.161 36.9522 51.7919 36.9709 52.8883V52.8883ZM13.1188 35.8605C12.1675 35.6194 14.1474 35.493 13.1188 35.8605V35.8605ZM16.1038 37.3898C15.7879 37.5267 16.0851 37.0294 16.1038 37.3898V37.3898ZM52.5151 61.0032C53.8373 60.7189 56.8504 61.7147 57.3384 60.6323C55.7318 60.5913 51.7802 59.4329 51.5942 60.9085L51.9452 60.967L52.5139 61.0021L52.5151 61.0032ZM17.0517 37.6414C16.2326 37.6004 17.0751 36.5309 17.0517 37.6414V37.6414ZM9.20236 31.8843C7.84617 31.5637 8.84547 29.7664 9.20236 31.8843V31.8843ZM11.0746 32.3816C9.3615 31.7696 11.098 31.7029 11.0746 32.3816V32.3816ZM12.1441 32.9374C11.834 32.6718 11.9019 33.2709 12.1441 32.9374V32.9374ZM18.8736 37.5033C18.1247 37.2751 19.1907 37.1956 18.8736 37.5033V37.5033ZM11.4315 31.6842C9.26321 31.4443 11.2501 30.0858 11.4315 31.6842V31.6842ZM7.59342 29.0514C7.21897 29.3287 7.53959 28.3142 7.59342 29.0514V29.0514ZM8.16445 28.5951C7.67416 28.7062 8.07083 27.7198 8.16445 28.5951V28.5951ZM11.318 30.5866C12.6519 30.032 8.88876 29.4399 11.0453 30.4813L11.318 30.5866ZM53.5249 58.1563C52.4413 57.9012 54.3791 57.329 53.5249 58.1563V58.1563ZM58.6244 60.9529C57.7631 61.0933 58.966 59.8822 58.6244 60.9529V60.9529ZM11.6421 28.8373C10.5843 29.042 11.7825 27.8017 11.6421 28.8373V28.8373ZM7.15462 25.6568C6.91357 24.1965 6.94633 21.6316 9.25268 22.4975C6.17521 23.1445 11.3823 26.5438 10.7247 23.8595C12.0189 23.9262 13.2557 23.0509 12.577 24.3802C15.1268 24.0818 16.8949 21.7439 19.3568 22.0715C21.2759 21.8024 23.3727 21.6 25.4404 20.7832C27.1394 20.6533 28.7753 18.7179 27.8438 17.5712C25.527 17.3641 23.1001 17.6706 20.5387 18.2089C17.6999 18.8326 15.1209 20.0191 12.2564 20.5281C9.46447 20.9248 12.8181 21.621 12.0177 21.7755C10.5609 22.3102 13.7554 22.6706 11.8293 23.2346C10.6393 22.9959 9.40128 22.563 9.91029 21.2372C7.23419 21.6046 4.88455 22.7783 6.99665 25.6557L7.15462 25.6568ZM13.5997 22.1874C14.2269 19.7453 16.958 24.1977 14.6271 22.5115C14.3486 22.2915 13.8899 22.1125 13.5997 22.1874ZM13.7214 21.0032C14.2024 21.4034 14.626 20.2894 13.7214 21.0032V21.0032ZM14.8705 21.0231C14.9524 19.8986 17.501 21.6175 15.2918 21.428L14.8705 21.0231ZM16.442 20.3538C16.607 20.9856 17.0165 19.6447 16.442 20.3538V20.3538ZM16.8445 20.0694C17.8005 18.8548 22.2576 19.2936 18.9953 19.9512C18.1212 19.255 17.4507 20.3608 16.8445 20.0683V20.0694ZM22.6625 19.1216C22.5162 15.8031 25.5515 20.2999 22.6625 19.1216V19.1216ZM24.3124 19.1122C24.9162 17.4389 26.6538 18.4406 24.5909 18.7752C24.6365 18.9531 24.5312 19.64 24.3124 19.1122ZM10.9915 27.9796C9.07715 26.9662 12.7935 26.8118 10.9915 27.9796V27.9796ZM12.3255 28.3716C10.9505 28.0837 12.9573 27.6601 12.3255 28.3716V28.3716ZM8.39613 25.4228C7.17685 25.1045 9.42586 24.5862 8.39613 25.4228V25.4228ZM61.6351 60.6452C60.8476 61.0828 61.6656 59.674 61.6351 60.6452V60.6452ZM56.2256 56.7416C55.5305 56.8387 56.38 55.6229 56.2256 56.7416V56.7416ZM63.1235 61.022C64.5628 61.0278 67.4882 60.5492 64.3522 60.5504C63.8607 60.6323 61.4877 60.6147 63.1235 61.022ZM13.4979 27.687C14.6622 27.6028 15.321 26.3273 13.2721 26.3999C10.0952 26.0535 16.0734 27.5513 12.8637 27.1218C12.4331 27.4237 13.4734 27.7713 13.4979 27.687ZM14.523 28.237C14.1638 28.6582 14.4025 27.4448 14.523 28.237V28.237ZM15.7411 24.8026C15.0414 24.6248 16.2478 24.1392 15.7411 24.8026V24.8026ZM11.8644 17.948C13.9449 17.1991 16.7907 16.3589 17.7725 18.3166C16.7732 17.0434 17.3688 15.7914 18.3131 17.6519C19.6482 19.5347 20.3175 16.7954 19.4481 16.1647C20.438 17.4635 21.5637 18.079 20.1116 16.2466C21.6901 14.2386 16.9499 16.5099 15.8733 16.4865C15.355 16.7322 10.5223 17.79 11.8644 17.9491V17.948ZM13.0837 15.479C14.2702 14.5312 17.1874 16.0406 15.3163 14.537C15.1326 14.3662 11.2162 15.6791 13.0837 15.479ZM17.4097 15.6662C18.7987 15.7048 16.8106 13.6945 18.4652 14.606C18.1937 13.6664 16.5391 13.4909 15.7294 13.1153C15.273 13.9742 16.6608 15.6767 17.4097 15.6662ZM13.842 11.5157C12.9995 11.8656 14.3217 10.8277 13.842 11.5157V11.5157ZM15.61 11.9639C17.8485 11.6503 15.0402 10.9458 15.1595 11.9381L15.61 11.9639ZM12.3102 9.23159C10.7329 7.05513 15.2719 9.59667 13.67 7.31841C12.3243 6.18338 11.0301 8.59504 12.3091 9.23042L12.3102 9.23159ZM32.5303 20.7504C33.2534 19.3954 29.5464 18.9239 32.0446 20.2707C32.274 20.3514 32.2213 20.8441 32.5303 20.7504Z" fill="white"/>
</g>
</g>
<defs>
<clipPath id="clip0_611_3632">
<rect width="72" height="72" fill="white"/>
</clipPath>
</defs>
</svg>
