<svg width="49" height="72" viewBox="0 0 49 72" fill="none" xmlns="http://www.w3.org/2000/svg">
<g clip-path="url(#clip0_611_3745)">
<path d="M10.4726 30.679C10.3572 30.679 10.3283 30.6216 10.3854 30.5354L10.9918 29.7593C11.0495 29.6732 11.1938 29.6157 11.3092 29.6157H21.6089C21.7243 29.6157 21.7531 29.7019 21.6954 29.788L21.205 30.5354C21.1473 30.6216 21.0031 30.7077 20.9165 30.7077L10.4726 30.679ZM6.11539 33.3251C6 33.3251 5.97115 33.267 6.02885 33.1809L6.63464 32.4048C6.69233 32.3186 6.83657 32.2612 6.95196 32.2612H20.1088C20.2248 32.2612 20.2825 32.3473 20.2531 32.4335L20.0229 33.124C19.9941 33.2383 19.8787 33.2964 19.7633 33.2964L6.11539 33.3251ZM13.0977 35.9699C12.9823 35.9699 12.9534 35.8832 13.0111 35.797L13.4156 35.0783C13.4733 34.9928 13.5887 34.906 13.7041 34.906H19.4748C19.5902 34.906 19.6479 34.9922 19.6479 35.1077L19.5902 35.797C19.5902 35.9125 19.4748 35.9987 19.3883 35.9987L13.0977 35.9699ZM43.048 30.1626C41.23 30.6222 39.9896 30.9675 38.2004 31.4276C37.7677 31.5425 37.7389 31.5712 37.3639 31.1404C36.9312 30.6515 36.6132 30.335 36.0074 30.0471C34.19 29.1562 32.4297 29.4153 30.7854 30.4786C28.8226 31.7436 27.8129 33.6123 27.8424 35.9412C27.8712 38.2408 29.4578 40.1382 31.7368 40.4548C33.6996 40.7133 35.3439 40.0234 36.6421 38.5573C36.9023 38.2408 37.1331 37.8961 37.4216 37.4934H31.8528C31.247 37.4934 31.1028 37.1194 31.3047 36.6311C31.6797 35.7395 32.372 34.2448 32.7759 33.4974C32.8624 33.3251 33.0644 33.0373 33.4971 33.0373H44C43.9423 33.8134 43.9423 34.5895 43.8269 35.3656C43.5096 37.436 42.7307 39.3334 41.4608 41.0005C39.3832 43.7321 36.6709 45.4279 33.2375 45.8881C30.4098 46.2621 27.7841 45.7158 25.4763 43.9906C23.341 42.381 22.1288 40.2531 21.8114 37.6083C21.4364 34.4746 22.3602 31.6574 24.2641 29.1849C26.3129 26.5113 29.0251 24.8155 32.3432 24.2111C35.0555 23.7223 37.6523 24.0388 39.9896 25.6203C41.5185 26.6262 42.6147 28.0061 43.3365 29.6738C43.5096 29.9323 43.3942 30.0765 43.048 30.1626Z" fill="#00ACD7"/>
<path d="M52.3177 47C49.6878 46.9418 47.289 46.1871 45.2663 44.4462C43.5611 42.966 42.4921 41.08 42.1456 38.8451C41.6253 35.5659 42.5211 32.6637 44.4858 30.0811C46.5961 27.2947 49.1385 25.8439 52.5772 25.2349C55.5253 24.7121 58.2995 25.0022 60.8136 26.7144C63.0964 28.2815 64.5125 30.4001 64.888 33.1865C65.3793 37.1042 64.2517 40.2965 61.5644 43.0242C59.6576 44.9689 57.3168 46.1877 54.6289 46.7386C53.8491 46.8843 53.0692 46.9131 52.3177 47ZM59.1953 35.2751C59.1663 34.8987 59.1663 34.6079 59.1084 34.3184C58.588 31.445 55.9587 29.8198 53.2135 30.4582C50.5256 31.0679 48.7914 32.7801 48.1558 35.5077C47.6361 37.7714 48.734 40.0639 50.8147 40.9931C52.404 41.6891 53.9933 41.6022 55.5253 40.8186C57.8082 39.6286 59.0504 37.7708 59.1953 35.2751Z" fill="#00ACD7"/>
<path d="M10.4726 30.679C10.3572 30.679 10.3283 30.6216 10.3854 30.5354L10.9918 29.7593C11.0495 29.6732 11.1938 29.6157 11.3092 29.6157H21.6089C21.7243 29.6157 21.7531 29.7019 21.6954 29.788L21.205 30.5354C21.1473 30.6216 21.0031 30.7077 20.9165 30.7077L10.4726 30.679ZM6.11539 33.3251C6 33.3251 5.97115 33.267 6.02885 33.1809L6.63464 32.4048C6.69233 32.3186 6.83657 32.2612 6.95196 32.2612H20.1088C20.2248 32.2612 20.2825 32.3473 20.2531 32.4335L20.0229 33.124C19.9941 33.2383 19.8787 33.2964 19.7633 33.2964L6.11539 33.3251ZM13.0977 35.9699C12.9823 35.9699 12.9534 35.8832 13.0111 35.797L13.4156 35.0783C13.4733 34.9928 13.5887 34.906 13.7041 34.906H19.4748C19.5902 34.906 19.6479 34.9922 19.6479 35.1077L19.5902 35.797C19.5902 35.9125 19.4748 35.9987 19.3883 35.9987L13.0977 35.9699ZM43.048 30.1626C41.23 30.6222 39.9896 30.9675 38.2004 31.4276C37.7677 31.5425 37.7389 31.5712 37.3639 31.1404C36.9312 30.6515 36.6132 30.335 36.0074 30.0471C34.19 29.1562 32.4297 29.4153 30.7854 30.4786C28.8226 31.7436 27.8129 33.6123 27.8424 35.9412C27.8712 38.2408 29.4578 40.1382 31.7368 40.4548C33.6996 40.7133 35.3439 40.0234 36.6421 38.5573C36.9023 38.2408 37.1331 37.8961 37.4216 37.4934H31.8528C31.247 37.4934 31.1028 37.1194 31.3047 36.6311C31.6797 35.7395 32.372 34.2448 32.7759 33.4974C32.8624 33.3251 33.0644 33.0373 33.4971 33.0373H44C43.9423 33.8134 43.9423 34.5895 43.8269 35.3656C43.5096 37.436 42.7307 39.3334 41.4608 41.0005C39.3832 43.7321 36.6709 45.4279 33.2375 45.8881C30.4098 46.2621 27.7841 45.7158 25.4763 43.9906C23.341 42.381 22.1288 40.2531 21.8114 37.6083C21.4364 34.4746 22.3602 31.6574 24.2641 29.1849C26.3129 26.5113 29.0251 24.8155 32.3432 24.2111C35.0555 23.7223 37.6523 24.0388 39.9896 25.6203C41.5185 26.6262 42.6147 28.0061 43.3365 29.6738C43.5096 29.9323 43.3942 30.0765 43.048 30.1626Z" fill="#BDBDBD"/>
<path d="M52.3177 47C49.6878 46.9418 47.289 46.1871 45.2663 44.4462C43.5611 42.966 42.4921 41.08 42.1456 38.8451C41.6253 35.5659 42.5211 32.6637 44.4858 30.0811C46.5961 27.2947 49.1385 25.8439 52.5772 25.2349C55.5253 24.7121 58.2995 25.0022 60.8136 26.7144C63.0964 28.2815 64.5125 30.4001 64.888 33.1865C65.3793 37.1042 64.2517 40.2965 61.5644 43.0242C59.6576 44.9689 57.3168 46.1877 54.6289 46.7386C53.8491 46.8843 53.0692 46.9131 52.3177 47ZM59.1953 35.2751C59.1663 34.8987 59.1663 34.6079 59.1084 34.3184C58.588 31.445 55.9587 29.8198 53.2135 30.4582C50.5256 31.0679 48.7914 32.7801 48.1558 35.5077C47.6361 37.7714 48.734 40.0639 50.8147 40.9931C52.404 41.6891 53.9933 41.6022 55.5253 40.8186C57.8082 39.6286 59.0504 37.7708 59.1953 35.2751Z" fill="#BDBDBD"/>
</g>
<defs>
<clipPath id="clip0_611_3745">
<rect width="72" height="72" fill="white"/>
</clipPath>
</defs>
</svg>
