<svg width="72" height="72" viewBox="0 0 72 72" fill="none" xmlns="http://www.w3.org/2000/svg">
<g clip-path="url(#clip0_611_3640)">
<mask id="mask0_611_3640" style="mask-type:luminance" maskUnits="userSpaceOnUse" x="11" y="5" width="49" height="62">
<path d="M59.7556 5.03906H11.5156V66.9591H59.7556V5.03906Z" fill="white"/>
</mask>
<g mask="url(#mask0_611_3640)">
<path d="M26.839 52.1988C26.839 52.1988 24.4147 53.3926 28.5645 53.7963C33.5926 54.2818 36.1617 54.2124 41.7019 53.3245C41.7019 53.3245 43.159 54.0973 45.1925 54.7673C32.7738 59.275 17.0834 54.5072 26.839 52.1988ZM25.3213 46.3164C25.3213 46.3164 22.6013 48.0217 26.7549 48.3845C32.1256 48.8551 36.3658 48.8923 43.7057 47.696C43.7057 47.696 44.7212 48.5666 46.3169 49.0434C31.3006 52.7623 14.5737 49.3369 25.3213 46.3164Z" fill="white"/>
<path d="M40.1826 35.5928C43.4815 39.0665 39.3168 42.1934 39.3168 42.1934C39.3168 42.1934 47.692 38.238 43.8452 33.2844C40.2532 28.6652 37.4973 26.3704 52.4133 18.457C52.4133 18.457 28.9984 23.8069 40.1826 35.5928Z" fill="#E76F00"/>
<path d="M54.6138 57.725C54.6138 57.725 56.3702 59.1863 52.6805 60.3157C45.6634 62.4618 23.4767 63.1108 17.3131 60.4024C15.0965 59.4278 19.2526 58.0779 20.5588 57.7943C21.9219 57.4958 22.7012 57.5516 22.7012 57.5516C20.2372 55.798 6.77453 60.9931 15.8622 62.4804C40.6477 66.5386 61.0433 60.6525 54.615 57.725H54.6138ZM28.6409 38.6685C28.6409 38.6685 17.3552 41.3756 24.6444 42.3589C27.7218 42.7737 33.857 42.6809 39.5728 42.1967C44.2434 41.7991 48.9326 40.9521 48.9326 40.9521C48.9326 40.9521 47.2862 41.6641 46.0951 42.4852C34.6337 45.5304 12.4928 44.1149 18.8679 41.0016C24.2584 38.3712 28.6409 38.6685 28.6409 38.6685ZM48.8868 50.0952C60.5374 43.9824 55.1506 38.1075 51.3903 38.9C50.4688 39.0932 50.0582 39.2604 50.0582 39.2604C50.0582 39.2604 50.3996 38.7192 51.0539 38.4852C58.4915 35.8449 64.2123 46.2735 48.6518 50.4035C48.6518 50.4035 48.8324 50.2413 48.8868 50.0952Z" fill="white"/>
<path d="M43.5113 5.03906C43.5113 5.03906 50.4801 11.2967 36.9024 20.9166C26.0138 28.6355 34.4187 33.0356 36.8975 38.0635C30.5422 32.9167 25.8777 28.3854 29.0059 24.1686C33.6011 17.9803 46.3241 14.9772 43.5125 5.03906" fill="#E76F00"/>
<path d="M30.4695 66.752C41.3767 67.505 58.1271 66.3347 58.5229 60.7656C58.5229 60.7656 57.761 62.8771 49.5083 64.5527C40.1992 66.4437 28.7168 66.2233 21.9062 65.0109C21.9062 65.0109 23.3003 66.2567 30.4695 66.752Z" fill="white"/>
</g>
<mask id="mask1_611_3640" style="mask-type:luminance" maskUnits="userSpaceOnUse" x="11" y="5" width="49" height="62">
<path d="M59.7556 5.03906H11.5156V66.9591H59.7556V5.03906Z" fill="white"/>
</mask>
<g mask="url(#mask1_611_3640)">
<path d="M26.839 52.1988C26.839 52.1988 24.4147 53.3926 28.5645 53.7963C33.5926 54.2818 36.1617 54.2124 41.7019 53.3245C41.7019 53.3245 43.159 54.0973 45.1925 54.7673C32.7738 59.275 17.0834 54.5072 26.839 52.1988ZM25.3213 46.3164C25.3213 46.3164 22.6013 48.0217 26.7549 48.3845C32.1256 48.8551 36.3658 48.8923 43.7057 47.696C43.7057 47.696 44.7212 48.5666 46.3169 49.0434C31.3006 52.7623 14.5737 49.3369 25.3213 46.3164Z" fill="white"/>
<path d="M40.1826 35.5928C43.4815 39.0665 39.3168 42.1934 39.3168 42.1934C39.3168 42.1934 47.692 38.238 43.8452 33.2844C40.2532 28.6652 37.4973 26.3704 52.4133 18.457C52.4133 18.457 28.9984 23.8069 40.1826 35.5928Z" fill="#2A2A2A"/>
<path d="M54.6138 57.725C54.6138 57.725 56.3702 59.1863 52.6805 60.3157C45.6634 62.4618 23.4767 63.1108 17.3131 60.4024C15.0965 59.4278 19.2526 58.0779 20.5588 57.7943C21.9219 57.4958 22.7012 57.5516 22.7012 57.5516C20.2372 55.798 6.77453 60.9931 15.8622 62.4804C40.6477 66.5386 61.0433 60.6525 54.615 57.725H54.6138ZM28.6409 38.6685C28.6409 38.6685 17.3552 41.3756 24.6444 42.3589C27.7218 42.7737 33.857 42.6809 39.5728 42.1967C44.2434 41.7991 48.9326 40.9521 48.9326 40.9521C48.9326 40.9521 47.2862 41.6641 46.0951 42.4852C34.6337 45.5304 12.4928 44.1149 18.8679 41.0016C24.2584 38.3712 28.6409 38.6685 28.6409 38.6685ZM48.8868 50.0952C60.5374 43.9824 55.1506 38.1075 51.3903 38.9C50.4688 39.0932 50.0582 39.2604 50.0582 39.2604C50.0582 39.2604 50.3996 38.7192 51.0539 38.4852C58.4915 35.8449 64.2123 46.2735 48.6518 50.4035C48.6518 50.4035 48.8324 50.2413 48.8868 50.0952Z" fill="white"/>
<path d="M43.5113 5.03906C43.5113 5.03906 50.4801 11.2967 36.9024 20.9166C26.0138 28.6355 34.4187 33.0356 36.8975 38.0635C30.5422 32.9167 25.8777 28.3854 29.0059 24.1686C33.6011 17.9803 46.3241 14.9772 43.5125 5.03906" fill="#2A2A2A"/>
<path d="M30.4695 66.752C41.3767 67.505 58.1271 66.3347 58.5229 60.7656C58.5229 60.7656 57.761 62.8771 49.5083 64.5527C40.1992 66.4437 28.7168 66.2233 21.9062 65.0109C21.9062 65.0109 23.3003 66.2567 30.4695 66.752Z" fill="white"/>
</g>
</g>
<defs>
<clipPath id="clip0_611_3640">
<rect width="72" height="72" fill="white"/>
</clipPath>
</defs>
</svg>
