<svg width="72" height="72" viewBox="0 0 72 72" fill="none" xmlns="http://www.w3.org/2000/svg">
<g clip-path="url(#clip0_611_3661)">
<mask id="mask0_611_3661" style="mask-type:luminance" maskUnits="userSpaceOnUse" x="11" y="10" width="50" height="52">
<path d="M60.75 10.7441H11.25V61.2543H60.75V10.7441Z" fill="white"/>
</mask>
<g mask="url(#mask0_611_3661)">
<path d="M33.807 11.2867C35.1324 10.5695 36.8578 10.5675 38.1811 11.2867C44.8414 14.8447 51.5037 18.3955 58.163 21.9545C59.4156 22.6222 60.2531 23.9395 60.24 25.3043V46.7055C60.2501 48.1259 59.3288 49.4755 58.0074 50.1271C51.3694 53.6648 44.7343 57.2066 38.0983 60.7443C36.7446 61.4747 34.9849 61.4191 33.6746 60.6281C31.6845 59.5371 29.6914 58.4522 27.7013 57.3632C27.2942 57.1338 26.8366 56.951 26.5497 56.5782C26.8022 56.255 27.2568 56.2146 27.6255 56.0731C28.4559 55.8236 29.2196 55.4236 29.9823 55.0346C30.1743 54.9094 30.4107 54.9569 30.5955 55.069C32.2977 55.9913 33.9837 56.9399 35.692 57.8541C36.0557 58.0521 36.4244 57.7885 36.7366 57.6248C43.2503 54.1446 49.7722 50.6776 56.284 47.1965C56.3982 47.1451 56.4937 47.0597 56.5574 46.9519C56.621 46.8441 56.6498 46.7192 56.6396 46.5944C56.6446 39.5351 56.6406 32.4737 56.6426 25.4134C56.6699 25.1306 56.4961 24.8699 56.2254 24.7538C49.6096 21.2322 42.9988 17.7056 36.385 14.183C36.269 14.1076 36.1336 14.0674 35.9952 14.0672C35.8568 14.0671 35.7214 14.1069 35.6051 14.182C28.9913 17.7056 22.3816 21.2352 15.7678 24.7568C15.497 24.873 15.3162 25.1286 15.3475 25.4134C15.3495 32.4737 15.3475 39.5351 15.3475 46.5954C15.3361 46.7179 15.3644 46.8408 15.4283 46.9459C15.493 47.052 15.59 47.1379 15.7081 47.1904C17.473 48.136 19.2398 49.0754 21.0057 50.019C22.0007 50.5241 23.222 50.8251 24.3191 50.4372C25.2859 50.1099 25.9637 49.1765 25.9456 48.2046C25.9546 41.1868 25.9405 34.1669 25.9526 27.149C25.9284 26.8378 26.2405 26.5802 26.5618 26.6095C27.4104 26.6045 28.2589 26.5994 29.1075 26.6115C29.4611 26.6045 29.7035 26.9399 29.6601 27.254C29.657 34.3174 29.6702 41.3807 29.655 48.4431C29.657 50.3261 28.8388 52.3738 26.9972 53.2951C24.7273 54.4063 21.9229 54.1709 19.6813 53.1051C17.7397 52.1899 15.888 51.109 13.9817 50.1281C12.6573 49.4795 11.7411 48.1248 11.7502 46.7055V25.3053C11.736 23.9123 12.6078 22.5707 13.8989 21.9141C20.5359 18.3723 27.1719 14.8295 33.807 11.2867Z" fill="#8CC84B"/>
<path d="M39.3375 26.1184C42.2903 25.9476 45.4502 26.0173 48.1071 27.3256C50.1638 28.3277 51.3044 30.4319 51.3407 32.4877C51.2831 32.7645 50.9609 32.917 50.6669 32.8978C49.8103 32.8978 48.9536 32.9079 48.097 32.8928C47.7333 32.9059 47.5222 32.6039 47.4767 32.315C47.2312 31.332 46.6342 30.3582 45.6058 29.8834C44.0258 29.1722 42.1933 29.2086 40.4709 29.2227C39.2132 29.2833 37.8616 29.3813 36.7958 30.046C35.9775 30.5501 35.729 31.5664 36.021 32.3857C36.2968 32.9746 37.0514 33.1635 37.6686 33.3393C41.2266 34.1758 44.9976 34.0929 48.4879 35.194C49.9325 35.6426 51.3458 36.5154 51.8398 37.8761C52.4863 39.7006 52.2034 41.8796 50.7609 43.3444C49.591 44.5485 47.8868 45.2042 46.1877 45.5608C43.9268 46.0143 41.5811 46.0255 39.2849 45.8234C37.1261 45.6032 34.8805 45.093 33.2136 43.7697C31.7882 42.6564 31.0922 40.9229 31.1609 39.249C31.177 38.9661 31.4902 38.7692 31.7912 38.7924C32.654 38.7863 33.5167 38.7843 34.3794 38.7934C34.5325 38.7829 34.6835 38.8335 34.7993 38.9343C34.915 39.0351 34.986 39.1777 34.9966 39.3308C35.1562 40.2683 35.5472 41.2512 36.4564 41.8068C38.2091 42.8241 40.4093 42.7544 42.4166 42.7827C44.0794 42.717 45.9462 42.6968 47.3039 41.7078C48.0192 41.1441 48.2313 40.2006 48.0384 39.3894C47.8282 38.7045 47.0312 38.3843 46.3473 38.1762C42.8348 37.1761 39.0233 37.5397 35.5442 36.4083C34.1319 35.9608 32.7661 35.1122 32.2236 33.807C31.466 31.9604 31.8135 29.6753 33.4076 28.261C34.9613 26.8548 37.2049 26.3113 39.3375 26.1184Z" fill="#8CC84B"/>
</g>
<mask id="mask1_611_3661" style="mask-type:luminance" maskUnits="userSpaceOnUse" x="11" y="10" width="50" height="52">
<path d="M60.75 10.7441H11.25V61.2543H60.75V10.7441Z" fill="white"/>
</mask>
<g mask="url(#mask1_611_3661)">
<path d="M33.807 11.2867C35.1324 10.5695 36.8578 10.5675 38.1811 11.2867C44.8414 14.8447 51.5037 18.3955 58.163 21.9545C59.4156 22.6222 60.2531 23.9395 60.24 25.3043V46.7055C60.2501 48.1259 59.3288 49.4755 58.0074 50.1271C51.3694 53.6648 44.7343 57.2066 38.0983 60.7443C36.7446 61.4747 34.9849 61.4191 33.6746 60.6281C31.6845 59.5371 29.6914 58.4522 27.7013 57.3632C27.2942 57.1338 26.8366 56.951 26.5497 56.5782C26.8022 56.255 27.2568 56.2146 27.6255 56.0731C28.4559 55.8236 29.2196 55.4236 29.9823 55.0346C30.1743 54.9094 30.4107 54.9569 30.5955 55.069C32.2977 55.9913 33.9837 56.9399 35.692 57.8541C36.0557 58.0521 36.4244 57.7885 36.7366 57.6248C43.2503 54.1446 49.7722 50.6776 56.284 47.1965C56.3982 47.1451 56.4937 47.0597 56.5574 46.9519C56.621 46.8441 56.6498 46.7192 56.6396 46.5944C56.6446 39.5351 56.6406 32.4737 56.6426 25.4134C56.6699 25.1306 56.4961 24.8699 56.2254 24.7538C49.6096 21.2322 42.9988 17.7056 36.385 14.183C36.269 14.1076 36.1336 14.0674 35.9952 14.0672C35.8568 14.0671 35.7214 14.1069 35.6051 14.182C28.9913 17.7056 22.3816 21.2352 15.7678 24.7568C15.497 24.873 15.3162 25.1286 15.3475 25.4134C15.3495 32.4737 15.3475 39.5351 15.3475 46.5954C15.3361 46.7179 15.3644 46.8408 15.4283 46.9459C15.493 47.052 15.59 47.1379 15.7081 47.1904C17.473 48.136 19.2398 49.0754 21.0057 50.019C22.0007 50.5241 23.222 50.8251 24.3191 50.4372C25.2859 50.1099 25.9637 49.1765 25.9456 48.2046C25.9546 41.1868 25.9405 34.1669 25.9526 27.149C25.9284 26.8378 26.2405 26.5802 26.5618 26.6095C27.4104 26.6045 28.2589 26.5994 29.1075 26.6115C29.4611 26.6045 29.7035 26.9399 29.6601 27.254C29.657 34.3174 29.6702 41.3807 29.655 48.4431C29.657 50.3261 28.8388 52.3738 26.9972 53.2951C24.7273 54.4063 21.9229 54.1709 19.6813 53.1051C17.7397 52.1899 15.888 51.109 13.9817 50.1281C12.6573 49.4795 11.7411 48.1248 11.7502 46.7055V25.3053C11.736 23.9123 12.6078 22.5707 13.8989 21.9141C20.5359 18.3723 27.1719 14.8295 33.807 11.2867Z" fill="white"/>
<path d="M39.3375 26.1184C42.2903 25.9476 45.4502 26.0173 48.1071 27.3256C50.1638 28.3277 51.3044 30.4319 51.3407 32.4877C51.2831 32.7645 50.9609 32.917 50.6669 32.8978C49.8103 32.8978 48.9536 32.9079 48.097 32.8928C47.7333 32.9059 47.5222 32.6039 47.4767 32.315C47.2312 31.332 46.6342 30.3582 45.6058 29.8834C44.0258 29.1722 42.1933 29.2086 40.4709 29.2227C39.2132 29.2833 37.8616 29.3813 36.7958 30.046C35.9775 30.5501 35.729 31.5664 36.021 32.3857C36.2968 32.9746 37.0514 33.1635 37.6686 33.3393C41.2266 34.1758 44.9976 34.0929 48.4879 35.194C49.9325 35.6426 51.3458 36.5154 51.8398 37.8761C52.4863 39.7006 52.2034 41.8796 50.7609 43.3444C49.591 44.5485 47.8868 45.2042 46.1877 45.5608C43.9268 46.0143 41.5811 46.0255 39.2849 45.8234C37.1261 45.6032 34.8805 45.093 33.2136 43.7697C31.7882 42.6564 31.0922 40.9229 31.1609 39.249C31.177 38.9661 31.4902 38.7692 31.7912 38.7924C32.654 38.7863 33.5167 38.7843 34.3794 38.7934C34.5325 38.7829 34.6835 38.8335 34.7993 38.9343C34.915 39.0351 34.986 39.1777 34.9966 39.3308C35.1562 40.2683 35.5472 41.2512 36.4564 41.8068C38.2091 42.8241 40.4093 42.7544 42.4166 42.7827C44.0794 42.717 45.9462 42.6968 47.3039 41.7078C48.0192 41.1441 48.2313 40.2006 48.0384 39.3894C47.8282 38.7045 47.0312 38.3843 46.3473 38.1762C42.8348 37.1761 39.0233 37.5397 35.5442 36.4083C34.1319 35.9608 32.7661 35.1122 32.2236 33.807C31.466 31.9604 31.8135 29.6753 33.4076 28.261C34.9613 26.8548 37.2049 26.3113 39.3375 26.1184Z" fill="white"/>
</g>
</g>
<defs>
<clipPath id="clip0_611_3661">
<rect width="72" height="72" fill="white"/>
</clipPath>
</defs>
</svg>
