<svg width="72" height="72" viewBox="0 0 72 72" fill="none" xmlns="http://www.w3.org/2000/svg">
<g clip-path="url(#clip0_611_3676)">
<mask id="mask0_611_3676" style="mask-type:luminance" maskUnits="userSpaceOnUse" x="13" y="9" width="48" height="53">
<path d="M60.75 9H13.5V61.5H60.75V9Z" fill="white"/>
</mask>
<g mask="url(#mask0_611_3676)">
<path d="M37.125 8.99609L13.5 22.1211V48.3711L37.125 61.4961L60.75 48.3711V22.1211L37.125 8.99609ZM50.7613 45.2872C50.7613 46.8339 49.2955 48.1065 47.2911 48.1065C45.8526 48.1065 44.2177 47.55 43.1982 46.3372L29.5618 30.7174V45.2862C29.5618 46.8601 28.2661 48.1065 26.6596 48.1065H26.4885C25.7191 48.1033 24.9801 47.8058 24.4231 47.2749C24.1537 47.0179 23.9384 46.7095 23.79 46.3679C23.6415 46.0264 23.563 45.6586 23.559 45.2862V25.207C23.559 23.6593 24.9891 22.3867 26.9673 22.3867C28.4331 22.3867 30.1026 22.9432 31.1211 24.156L44.6871 39.7758V25.206C44.6871 23.6257 46.0563 22.3857 47.6271 22.3857H47.7951C48.5648 22.3879 49.3044 22.6851 49.8615 23.2162C50.4106 23.7444 50.7204 24.4594 50.7256 25.206V45.2862L50.7613 45.2872Z" fill="#8CC84B"/>
</g>
<mask id="mask1_611_3676" style="mask-type:luminance" maskUnits="userSpaceOnUse" x="13" y="9" width="48" height="53">
<path d="M60.75 9H13.5V61.5H60.75V9Z" fill="white"/>
</mask>
<g mask="url(#mask1_611_3676)">
<path d="M37.125 8.99609L13.5 22.1211V48.3711L37.125 61.4961L60.75 48.3711V22.1211L37.125 8.99609ZM50.7613 45.2872C50.7613 46.8339 49.2955 48.1065 47.2911 48.1065C45.8526 48.1065 44.2177 47.55 43.1982 46.3372L29.5618 30.7174V45.2862C29.5618 46.8601 28.2661 48.1065 26.6596 48.1065H26.4885C25.7191 48.1033 24.9801 47.8058 24.4231 47.2749C24.1537 47.0179 23.9384 46.7095 23.79 46.3679C23.6415 46.0264 23.563 45.6586 23.559 45.2862V25.207C23.559 23.6593 24.9891 22.3867 26.9673 22.3867C28.4331 22.3867 30.1026 22.9432 31.1211 24.156L44.6871 39.7758V25.206C44.6871 23.6257 46.0563 22.3857 47.6271 22.3857H47.7951C48.5648 22.3879 49.3044 22.6851 49.8615 23.2162C50.4106 23.7444 50.7204 24.4594 50.7256 25.206V45.2862L50.7613 45.2872Z" fill="#959595"/>
</g>
</g>
<defs>
<clipPath id="clip0_611_3676">
<rect width="72" height="72" fill="white"/>
</clipPath>
</defs>
</svg>
