<svg width="72" height="72" viewBox="0 0 72 72" fill="none" xmlns="http://www.w3.org/2000/svg">
<g clip-path="url(#clip0_611_3717)">
<g clip-path="url(#clip1_611_3717)">
<mask id="mask0_611_3717" style="mask-type:luminance" maskUnits="userSpaceOnUse" x="13" y="13" width="48" height="47">
<path d="M60.75 13.5H13.5V59.8235H60.75V13.5Z" fill="white"/>
</mask>
<g mask="url(#mask0_611_3717)">
<path d="M60.1701 41.25C59.8922 40.4319 59.1621 39.8622 58.219 39.726C57.7743 39.6611 57.2647 39.6889 56.6625 39.8094C55.6109 40.0197 54.8318 40.0993 54.2629 40.1151C56.4105 36.5991 58.156 32.5894 59.1612 28.8149C60.7862 22.7123 59.9181 19.9319 58.9027 18.6747C56.2169 15.345 52.2988 13.5569 47.572 13.5013C45.0492 13.4717 42.8358 13.9553 41.6805 14.3018C40.5421 14.112 39.3909 14.0098 38.2368 13.996C35.9623 13.9608 33.9528 14.4417 32.2361 15.4302C30.8527 14.9771 29.4362 14.6323 27.9993 14.3991C23.8543 13.7394 20.5162 14.2536 18.0731 15.9287C15.1158 17.9539 13.7447 21.4745 13.9985 26.3922C14.0791 27.9533 14.9796 32.7033 16.3981 37.2088C17.2124 39.7982 18.0805 41.9486 18.9792 43.6005C20.254 45.9426 21.6178 47.3221 23.1483 47.8178C24.0072 48.0957 25.5664 48.2893 27.2063 46.9645C27.4138 47.2091 27.6917 47.4509 28.0596 47.6769C28.5274 47.9623 29.0991 48.1958 29.6698 48.3347C31.7265 48.8332 33.6536 48.709 35.2971 48.0096C35.3073 48.2931 35.3157 48.5645 35.3222 48.798C35.3323 49.1778 35.3435 49.5493 35.3583 49.8977C35.4556 52.2509 35.6205 54.0798 36.1087 55.3602C36.1444 55.4568 36.1784 55.5541 36.2106 55.652C36.4543 56.3765 36.862 57.5893 37.9005 58.5389C38.9743 59.5228 40.2751 59.8248 41.4656 59.8248C42.0258 59.8217 42.5843 59.7615 43.1323 59.6451C44.913 59.2745 46.9364 58.7103 48.3993 56.6897C49.7834 54.7793 50.4561 51.9007 50.5774 47.3666L50.6219 46.9997L50.6506 46.7588L50.9767 46.7875L51.0601 46.7931C52.8751 46.8728 55.093 46.5003 56.4559 45.8861C57.5324 45.4015 60.9817 43.6348 60.1701 41.25Z" fill="#959595"/>
<path d="M57.2853 41.7292C51.833 42.828 51.4578 41.0251 51.4578 41.0251C57.214 32.6831 59.6209 22.0945 57.5447 19.5031C51.8784 12.4332 42.0717 15.776 41.9077 15.863L41.8549 15.8723C40.7775 15.6537 39.5721 15.524 38.2176 15.5017C35.7504 15.4628 33.879 16.1336 32.4587 17.186C32.4587 17.186 14.9632 10.1467 15.7776 26.0385C15.9508 29.4192 20.7388 51.6183 26.4505 44.9135C28.5379 42.4611 30.5548 40.3876 30.5548 40.3876C31.5765 41.0589 32.796 41.3631 34.0133 41.2502L34.1115 41.1696C34.0823 41.488 34.0954 41.8089 34.1504 42.1239C32.6792 43.7294 33.1118 44.0111 30.1703 44.6031C27.1935 45.2016 28.9418 46.268 30.0841 46.5468C31.4674 46.885 34.6702 47.364 36.8325 44.4067L36.7464 44.7439C37.3226 45.1951 37.7284 47.6771 37.6599 49.9275C37.5922 52.1779 37.5469 53.7223 38.0008 54.9295C38.4548 56.1358 38.9088 58.8513 42.7749 58.0425C46.0055 57.3661 47.6806 55.6133 47.9131 52.6902C48.078 50.6122 48.4523 50.9198 48.4764 49.0622L48.7766 48.182C49.1222 45.3656 48.8313 44.4567 50.8213 44.8792L51.3059 44.9209C52.7697 44.9857 54.6875 44.6911 55.8131 44.1797C58.2368 43.0818 59.6747 41.2474 57.2853 41.7292Z" fill="#336791"/>
<path d="M34.1041 27.7878C33.6196 27.7387 33.1814 27.7841 32.959 27.9055C32.8339 27.974 32.796 28.0537 32.7848 28.1074C32.757 28.252 32.8969 28.4123 32.9831 28.4947C33.2841 28.7713 33.6769 28.9264 34.0856 28.9301C34.6721 28.9301 35.2057 28.6003 35.253 28.3557C35.3113 28.0509 34.698 27.8471 34.1041 27.7878ZM50.1506 27.7971C50.1043 27.558 49.515 27.4895 48.9564 27.546C48.3986 27.6016 47.8576 27.7841 47.9021 28.0241C47.9391 28.2112 48.4042 28.529 48.9555 28.529C49.2834 28.5246 49.6014 28.4159 49.8634 28.2186C50.058 28.0704 50.171 27.9045 50.1506 27.7971Z" fill="white"/>
<path d="M58.796 41.5368C58.5912 40.9383 57.9325 40.7456 56.8374 40.9643C53.5874 41.6128 52.4237 41.1635 52.042 40.8911C54.5676 37.1722 56.6466 32.677 57.7676 28.4819C58.2976 26.4947 58.5912 24.6501 58.6153 23.1455C58.6422 21.4954 58.3513 20.2827 57.7509 19.5415C55.3319 16.5536 51.7817 14.9508 47.4838 14.9073C44.5293 14.8749 42.0334 15.6059 41.5497 15.8115C40.4551 15.5506 39.335 15.4114 38.2098 15.3965C35.9918 15.3622 34.075 15.8755 32.4879 16.9214C30.9769 16.3875 29.4201 15.993 27.837 15.743C24.07 15.1565 21.0766 15.6012 18.9402 17.0632C16.3914 18.8087 15.2139 21.929 15.4418 26.3372C15.5187 27.8195 16.3933 32.3824 17.7728 36.7507C19.5887 42.5013 21.563 45.756 23.6401 46.4268C23.8838 46.5046 24.1636 46.5592 24.473 46.5592C25.2309 46.5592 26.1592 46.2294 27.1264 45.1065C28.3065 43.7383 29.5259 42.4045 30.7832 41.107C31.5994 41.5304 32.4972 41.7675 33.4144 41.7907L33.4209 41.8602C33.2634 42.0427 33.1077 42.2271 32.9567 42.4142C32.3212 43.1943 32.1887 43.3564 30.1421 43.7641C29.5603 43.8799 28.014 44.1875 27.9918 45.2353C27.9668 46.3795 29.8188 46.8603 30.03 46.9113C30.7236 47.0836 31.4351 47.1729 32.1498 47.1772C33.7924 47.1772 35.2386 46.6547 36.3939 45.6448C36.3587 49.725 36.5348 53.744 37.0415 54.9688C37.4566 55.9722 38.4702 58.4227 41.6739 58.4218C42.1436 58.4218 42.6606 58.369 43.2304 58.2513C46.5731 57.5583 48.0239 56.1306 48.5854 52.9825C48.8865 51.3 49.4016 47.2828 49.6443 45.1269C50.1567 45.2816 50.8154 45.352 51.5278 45.352C53.0139 45.352 54.7279 45.0463 55.8035 44.5645C57.0116 44.0226 59.1907 42.694 58.796 41.5368ZM50.8348 26.9736C50.8237 27.6101 50.7329 28.1873 50.6375 28.7905C50.5337 29.439 50.4272 30.1088 50.4003 30.9232C50.3734 31.7153 50.4754 32.538 50.5745 33.3348C50.7746 34.9431 50.9803 36.5987 50.1854 38.233C50.0536 38.0074 49.936 37.7738 49.8333 37.5336C49.7351 37.3019 49.5202 36.9314 49.2237 36.4162C48.0684 34.4151 45.364 29.7271 46.7482 27.813C47.1604 27.2442 48.2083 26.6586 50.8348 26.9736ZM47.6505 16.1951C51.501 16.2775 54.5472 17.67 56.7031 20.3336C58.3568 22.3765 56.5363 31.6718 51.2629 39.6913L51.1035 39.4967L51.0368 39.4152C52.3987 37.2408 52.1328 35.0886 51.8956 33.181C51.7984 32.3981 51.7057 31.6588 51.7289 30.964C51.7539 30.2283 51.8539 29.5965 51.9512 28.9859C52.0717 28.2336 52.193 27.4554 52.1597 26.5373C52.1847 26.4409 52.1949 26.3279 52.1819 26.1926C52.0958 25.3125 51.0563 22.6785 48.9374 20.2947C47.7784 18.9903 46.0876 17.5311 43.7798 16.5471C45.0535 16.2902 46.3514 16.1722 47.6505 16.1951ZM26.1036 44.2847C25.0382 45.5216 24.3035 45.2853 24.0617 45.2066C22.4858 44.6989 20.6569 41.4803 19.0448 36.3755C17.6505 31.959 16.8352 27.5184 16.7704 26.2723C16.5665 22.3348 17.5551 19.5888 19.7073 18.1138C23.2093 15.7143 28.9673 17.1503 31.2807 17.8794C31.2474 17.9109 31.2131 17.9406 31.1807 17.9721C27.3831 21.6779 27.4739 28.0104 27.4831 28.3976C27.4831 28.5459 27.4952 28.759 27.5128 29.0489C27.5776 30.1144 27.6999 32.0961 27.3757 34.3409C27.0736 36.4264 27.7388 38.4674 29.2008 39.9415C29.35 40.0925 29.5075 40.2361 29.6733 40.3723C28.4471 41.6428 27.2567 42.9475 26.1036 44.2847ZM30.1606 39.052C28.9831 37.8643 28.4476 36.2124 28.6931 34.5188C29.0359 32.1471 28.909 30.082 28.8413 28.973C28.8321 28.8173 28.8228 28.6821 28.8182 28.5746C29.3731 28.0993 31.9432 26.768 33.7767 27.1738C34.6123 27.3591 35.1219 27.9094 35.334 28.8562C36.431 33.7591 35.4795 35.802 34.7152 37.4446C34.5577 37.7819 34.4085 38.1024 34.2816 38.4332L34.1824 38.6889C33.9332 39.3346 33.7007 39.9359 33.5571 40.5066C32.3054 40.5038 31.0871 39.9869 30.1606 39.052ZM30.3524 45.6633C30.039 45.589 29.7396 45.4644 29.4658 45.2946C29.627 45.2214 29.9133 45.1223 30.4108 45.0231C32.8178 44.5442 33.1902 44.206 34.0018 43.21C34.1871 42.9812 34.3983 42.7227 34.6911 42.4068C35.1265 41.9352 35.3257 42.0158 35.687 42.1604C35.9789 42.2771 36.2642 42.6319 36.38 43.022C36.4347 43.2054 36.4958 43.5556 36.2948 43.828C34.5994 46.1229 32.1275 46.0932 30.3524 45.6633ZM42.9515 56.9941C40.0053 57.6037 38.963 56.1519 38.2765 54.4917C37.8327 53.4198 37.615 48.5864 37.7697 43.249C37.7715 43.1799 37.7618 43.111 37.741 43.0451C37.7226 42.9176 37.6947 42.7915 37.6576 42.6681C37.4288 41.8917 36.8683 41.2413 36.1957 40.9726C35.9288 40.8651 35.4387 40.6687 34.8495 40.8151C34.9746 40.3148 35.1923 39.7497 35.4295 39.1382L35.5286 38.8806C35.6398 38.5907 35.7797 38.2896 35.927 37.9718C36.7275 36.2541 37.8235 33.9009 36.6348 28.5848C36.1892 26.5929 34.7013 25.621 32.4462 25.8471C31.0936 25.9823 29.8577 26.5095 29.2407 26.8115C29.1082 26.8764 28.9868 26.9394 28.8728 27.0005C29.0452 24.9947 29.6955 21.2453 32.1294 18.8735C33.6618 17.38 35.7019 16.6426 38.1885 16.6824C43.0868 16.7593 46.2275 19.1894 47.9998 21.2138C49.5285 22.9593 50.3558 24.7158 50.6857 25.6645C48.2027 25.42 46.5147 25.8934 45.6586 27.0765C43.7964 29.6493 46.6778 34.643 48.0619 37.0425C48.3158 37.4817 48.5344 37.8625 48.6039 38.0246C49.0551 39.0798 49.6388 39.7849 50.0649 40.3C50.1946 40.4575 50.3216 40.6104 50.4179 40.7447C49.6665 40.9532 48.3158 41.4377 48.439 43.8576C48.3398 45.0713 47.6329 50.7561 47.2753 52.7638C46.8019 55.4172 45.7911 56.4048 42.9515 56.9941ZM55.243 43.399C54.474 43.7437 53.1881 44.0022 51.9651 44.0578C50.6153 44.1189 49.9278 43.9123 49.7666 43.7845C49.6906 42.2762 50.2706 42.1187 50.8858 41.9519C50.9805 41.9273 51.0744 41.8998 51.1674 41.8694C51.223 41.9139 51.286 41.9584 51.3537 42.001C52.4385 42.694 54.3739 42.7681 57.107 42.2234L57.1367 42.2178C56.7679 42.5513 56.137 42.997 55.243 43.399Z" fill="white"/>
</g>
<mask id="mask1_611_3717" style="mask-type:luminance" maskUnits="userSpaceOnUse" x="13" y="13" width="48" height="47">
<path d="M60.75 13.5H13.5V59.8235H60.75V13.5Z" fill="white"/>
</mask>
<g mask="url(#mask1_611_3717)">
<path d="M60.1701 41.25C59.8922 40.4319 59.1621 39.8622 58.219 39.726C57.7743 39.6611 57.2647 39.6889 56.6625 39.8094C55.6109 40.0197 54.8318 40.0993 54.2629 40.1151C56.4105 36.5991 58.156 32.5894 59.1612 28.8149C60.7862 22.7123 59.9181 19.9319 58.9027 18.6747C56.2169 15.345 52.2988 13.5569 47.572 13.5013C45.0492 13.4717 42.8358 13.9553 41.6805 14.3018C40.5421 14.112 39.3909 14.0098 38.2368 13.996C35.9623 13.9608 33.9528 14.4417 32.2361 15.4302C30.8527 14.9771 29.4362 14.6323 27.9993 14.3991C23.8543 13.7394 20.5162 14.2536 18.0731 15.9287C15.1158 17.9539 13.7447 21.4745 13.9985 26.3922C14.0791 27.9533 14.9796 32.7033 16.3981 37.2088C17.2124 39.7982 18.0805 41.9486 18.9792 43.6005C20.254 45.9426 21.6178 47.3221 23.1483 47.8178C24.0072 48.0957 25.5664 48.2893 27.2063 46.9645C27.4138 47.2091 27.6917 47.4509 28.0596 47.6769C28.5274 47.9623 29.0991 48.1958 29.6698 48.3347C31.7265 48.8332 33.6536 48.709 35.2971 48.0096C35.3073 48.2931 35.3157 48.5645 35.3222 48.798C35.3323 49.1778 35.3435 49.5493 35.3583 49.8977C35.4556 52.2509 35.6205 54.0798 36.1087 55.3602C36.1444 55.4568 36.1784 55.5541 36.2106 55.652C36.4543 56.3765 36.862 57.5893 37.9005 58.5389C38.9743 59.5228 40.2751 59.8248 41.4656 59.8248C42.0258 59.8217 42.5843 59.7615 43.1323 59.6451C44.913 59.2745 46.9364 58.7103 48.3993 56.6897C49.7834 54.7793 50.4561 51.9007 50.5774 47.3666L50.6219 46.9997L50.6506 46.7588L50.9767 46.7875L51.0601 46.7931C52.8751 46.8728 55.093 46.5003 56.4559 45.8861C57.5324 45.4015 60.9817 43.6348 60.1701 41.25Z" fill="#959595"/>
<path d="M57.2853 41.7292C51.833 42.828 51.4578 41.0251 51.4578 41.0251C57.214 32.6831 59.6209 22.0945 57.5447 19.5031C51.8784 12.4332 42.0717 15.776 41.9077 15.863L41.8549 15.8723C40.7775 15.6537 39.5721 15.524 38.2176 15.5017C35.7504 15.4628 33.879 16.1336 32.4587 17.186C32.4587 17.186 14.9632 10.1467 15.7776 26.0385C15.9508 29.4192 20.7388 51.6183 26.4505 44.9135C28.5379 42.4611 30.5548 40.3876 30.5548 40.3876C31.5765 41.0589 32.796 41.3631 34.0133 41.2502L34.1115 41.1696C34.0823 41.488 34.0954 41.8089 34.1504 42.1239C32.6792 43.7294 33.1118 44.0111 30.1703 44.6031C27.1935 45.2016 28.9418 46.268 30.0841 46.5468C31.4674 46.885 34.6702 47.364 36.8325 44.4067L36.7464 44.7439C37.3226 45.1951 37.7284 47.6771 37.6599 49.9275C37.5922 52.1779 37.5469 53.7223 38.0008 54.9295C38.4548 56.1358 38.9088 58.8513 42.7749 58.0425C46.0055 57.3661 47.6806 55.6133 47.9131 52.6902C48.078 50.6122 48.4523 50.9198 48.4764 49.0622L48.7766 48.182C49.1222 45.3656 48.8313 44.4567 50.8213 44.8792L51.3059 44.9209C52.7697 44.9857 54.6875 44.6911 55.8131 44.1797C58.2368 43.0818 59.6747 41.2474 57.2853 41.7292Z" fill="#888888"/>
<path d="M34.1041 27.7878C33.6196 27.7387 33.1814 27.7841 32.959 27.9055C32.8339 27.974 32.796 28.0537 32.7848 28.1074C32.757 28.252 32.8969 28.4123 32.9831 28.4947C33.2841 28.7713 33.6769 28.9264 34.0856 28.9301C34.6721 28.9301 35.2057 28.6003 35.253 28.3557C35.3113 28.0509 34.698 27.8471 34.1041 27.7878ZM50.1506 27.7971C50.1043 27.558 49.515 27.4895 48.9564 27.546C48.3986 27.6016 47.8576 27.7841 47.9021 28.0241C47.9391 28.2112 48.4042 28.529 48.9555 28.529C49.2834 28.5246 49.6014 28.4159 49.8634 28.2186C50.058 28.0704 50.171 27.9045 50.1506 27.7971Z" fill="white"/>
<path d="M58.796 41.5368C58.5912 40.9383 57.9325 40.7456 56.8374 40.9643C53.5874 41.6128 52.4237 41.1635 52.042 40.8911C54.5676 37.1722 56.6466 32.677 57.7676 28.4819C58.2976 26.4947 58.5912 24.6501 58.6153 23.1455C58.6422 21.4954 58.3513 20.2827 57.7509 19.5415C55.3319 16.5536 51.7817 14.9508 47.4838 14.9073C44.5293 14.8749 42.0334 15.6059 41.5497 15.8115C40.4551 15.5506 39.335 15.4114 38.2098 15.3965C35.9918 15.3622 34.075 15.8755 32.4879 16.9214C30.9769 16.3875 29.4201 15.993 27.837 15.743C24.07 15.1565 21.0766 15.6012 18.9402 17.0632C16.3914 18.8087 15.2139 21.929 15.4418 26.3372C15.5187 27.8195 16.3933 32.3824 17.7728 36.7507C19.5887 42.5013 21.563 45.756 23.6401 46.4268C23.8838 46.5046 24.1636 46.5592 24.473 46.5592C25.2309 46.5592 26.1592 46.2294 27.1264 45.1065C28.3065 43.7383 29.5259 42.4045 30.7832 41.107C31.5994 41.5304 32.4972 41.7675 33.4144 41.7907L33.4209 41.8602C33.2634 42.0427 33.1077 42.2271 32.9567 42.4142C32.3212 43.1943 32.1887 43.3564 30.1421 43.7641C29.5603 43.8799 28.014 44.1875 27.9918 45.2353C27.9668 46.3795 29.8188 46.8603 30.03 46.9113C30.7236 47.0836 31.4351 47.1729 32.1498 47.1772C33.7924 47.1772 35.2386 46.6547 36.3939 45.6448C36.3587 49.725 36.5348 53.744 37.0415 54.9688C37.4566 55.9722 38.4702 58.4227 41.6739 58.4218C42.1436 58.4218 42.6606 58.369 43.2304 58.2513C46.5731 57.5583 48.0239 56.1306 48.5854 52.9825C48.8865 51.3 49.4016 47.2828 49.6443 45.1269C50.1567 45.2816 50.8154 45.352 51.5278 45.352C53.0139 45.352 54.7279 45.0463 55.8035 44.5645C57.0116 44.0226 59.1907 42.694 58.796 41.5368ZM50.8348 26.9736C50.8237 27.6101 50.7329 28.1873 50.6375 28.7905C50.5337 29.439 50.4272 30.1088 50.4003 30.9232C50.3734 31.7153 50.4754 32.538 50.5745 33.3348C50.7746 34.9431 50.9803 36.5987 50.1854 38.233C50.0536 38.0074 49.936 37.7738 49.8333 37.5336C49.7351 37.3019 49.5202 36.9314 49.2237 36.4162C48.0684 34.4151 45.364 29.7271 46.7482 27.813C47.1604 27.2442 48.2083 26.6586 50.8348 26.9736ZM47.6505 16.1951C51.501 16.2775 54.5472 17.67 56.7031 20.3336C58.3568 22.3765 56.5363 31.6718 51.2629 39.6913L51.1035 39.4967L51.0368 39.4152C52.3987 37.2408 52.1328 35.0886 51.8956 33.181C51.7984 32.3981 51.7057 31.6588 51.7289 30.964C51.7539 30.2283 51.8539 29.5965 51.9512 28.9859C52.0717 28.2336 52.193 27.4554 52.1597 26.5373C52.1847 26.4409 52.1949 26.3279 52.1819 26.1926C52.0958 25.3125 51.0563 22.6785 48.9374 20.2947C47.7784 18.9903 46.0876 17.5311 43.7798 16.5471C45.0535 16.2902 46.3514 16.1722 47.6505 16.1951ZM26.1036 44.2847C25.0382 45.5216 24.3035 45.2853 24.0617 45.2066C22.4858 44.6989 20.6569 41.4803 19.0448 36.3755C17.6505 31.959 16.8352 27.5184 16.7704 26.2723C16.5665 22.3348 17.5551 19.5888 19.7073 18.1138C23.2093 15.7143 28.9673 17.1503 31.2807 17.8794C31.2474 17.9109 31.2131 17.9406 31.1807 17.9721C27.3831 21.6779 27.4739 28.0104 27.4831 28.3976C27.4831 28.5459 27.4952 28.759 27.5128 29.0489C27.5776 30.1144 27.6999 32.0961 27.3757 34.3409C27.0736 36.4264 27.7388 38.4674 29.2008 39.9415C29.35 40.0925 29.5075 40.2361 29.6733 40.3723C28.4471 41.6428 27.2567 42.9475 26.1036 44.2847ZM30.1606 39.052C28.9831 37.8643 28.4476 36.2124 28.6931 34.5188C29.0359 32.1471 28.909 30.082 28.8413 28.973C28.8321 28.8173 28.8228 28.6821 28.8182 28.5746C29.3731 28.0993 31.9432 26.768 33.7767 27.1738C34.6123 27.3591 35.1219 27.9094 35.334 28.8562C36.431 33.7591 35.4795 35.802 34.7152 37.4446C34.5577 37.7819 34.4085 38.1024 34.2816 38.4332L34.1824 38.6889C33.9332 39.3346 33.7007 39.9359 33.5571 40.5066C32.3054 40.5038 31.0871 39.9869 30.1606 39.052ZM30.3524 45.6633C30.039 45.589 29.7396 45.4644 29.4658 45.2946C29.627 45.2214 29.9133 45.1223 30.4108 45.0231C32.8178 44.5442 33.1902 44.206 34.0018 43.21C34.1871 42.9812 34.3983 42.7227 34.6911 42.4068C35.1265 41.9352 35.3257 42.0158 35.687 42.1604C35.9789 42.2771 36.2642 42.6319 36.38 43.022C36.4347 43.2054 36.4958 43.5556 36.2948 43.828C34.5994 46.1229 32.1275 46.0932 30.3524 45.6633ZM42.9515 56.9941C40.0053 57.6037 38.963 56.1519 38.2765 54.4917C37.8327 53.4198 37.615 48.5864 37.7697 43.249C37.7715 43.1799 37.7618 43.111 37.741 43.0451C37.7226 42.9176 37.6947 42.7915 37.6576 42.6681C37.4288 41.8917 36.8683 41.2413 36.1957 40.9726C35.9288 40.8651 35.4387 40.6687 34.8495 40.8151C34.9746 40.3148 35.1923 39.7497 35.4295 39.1382L35.5286 38.8806C35.6398 38.5907 35.7797 38.2896 35.927 37.9718C36.7275 36.2541 37.8235 33.9009 36.6348 28.5848C36.1892 26.5929 34.7013 25.621 32.4462 25.8471C31.0936 25.9823 29.8577 26.5095 29.2407 26.8115C29.1082 26.8764 28.9868 26.9394 28.8728 27.0005C29.0452 24.9947 29.6955 21.2453 32.1294 18.8735C33.6618 17.38 35.7019 16.6426 38.1885 16.6824C43.0868 16.7593 46.2275 19.1894 47.9998 21.2138C49.5285 22.9593 50.3558 24.7158 50.6857 25.6645C48.2027 25.42 46.5147 25.8934 45.6586 27.0765C43.7964 29.6493 46.6778 34.643 48.0619 37.0425C48.3158 37.4817 48.5344 37.8625 48.6039 38.0246C49.0551 39.0798 49.6388 39.7849 50.0649 40.3C50.1946 40.4575 50.3216 40.6104 50.4179 40.7447C49.6665 40.9532 48.3158 41.4377 48.439 43.8576C48.3398 45.0713 47.6329 50.7561 47.2753 52.7638C46.8019 55.4172 45.7911 56.4048 42.9515 56.9941ZM55.243 43.399C54.474 43.7437 53.1881 44.0022 51.9651 44.0578C50.6153 44.1189 49.9278 43.9123 49.7666 43.7845C49.6906 42.2762 50.2706 42.1187 50.8858 41.9519C50.9805 41.9273 51.0744 41.8998 51.1674 41.8694C51.223 41.9139 51.286 41.9584 51.3537 42.001C52.4385 42.694 54.3739 42.7681 57.107 42.2234L57.1367 42.2178C56.7679 42.5513 56.137 42.997 55.243 43.399Z" fill="white"/>
</g>
</g>
</g>
<defs>
<clipPath id="clip0_611_3717">
<rect width="72" height="72" fill="white"/>
</clipPath>
<clipPath id="clip1_611_3717">
<rect width="72" height="72" fill="white"/>
</clipPath>
</defs>
</svg>
