<svg width="72" height="72" viewBox="0 0 72 72" fill="none" xmlns="http://www.w3.org/2000/svg">
<g clip-path="url(#clip0_611_3689)">
<mask id="mask0_611_3689" style="mask-type:luminance" maskUnits="userSpaceOnUse" x="11" y="15" width="50" height="42">
<path d="M60.75 15.75H11.25V56.3238H60.75V15.75Z" fill="white"/>
</mask>
<g mask="url(#mask0_611_3689)">
<path d="M58.065 47.2748C55.5089 48.5577 42.2737 53.8006 39.4555 55.2167C36.6372 56.6319 35.0719 56.6181 32.846 55.5932C30.6193 54.5675 16.5337 49.086 13.9962 47.9174C12.7279 47.334 12.0625 46.8406 12.0625 46.3765V41.7137C12.0625 41.7137 30.4002 37.8673 33.3605 36.844C36.3207 35.8208 37.3481 35.7835 39.8677 36.6728C42.3873 37.5622 57.4524 40.1808 59.9412 41.0597V45.6559C59.9412 46.1168 59.3658 46.6223 58.0659 47.2756L58.065 47.2748Z" fill="#912626"/>
<path d="M58.0512 42.5047C55.4983 43.8468 42.2704 49.3349 39.4546 50.8158C36.6388 52.2976 35.0734 52.2829 32.8492 51.2102C30.6241 50.1374 16.5474 44.3995 14.0124 43.1766C11.4765 41.9545 11.4238 41.113 13.915 40.1287C16.4054 39.1443 30.4034 33.6028 33.362 32.5316C36.3207 31.4605 37.3472 31.4223 39.8652 32.3531C42.3824 33.2831 55.5315 38.5641 58.0195 39.4835C60.5083 40.4038 60.6049 41.1617 58.0512 42.5047Z" fill="#C6302B"/>
<path d="M58.0523 38.5794C55.4994 39.8632 42.2707 45.1061 39.4549 46.5222C36.6391 47.9366 35.0745 47.9228 32.8495 46.8979C30.6244 45.873 16.5477 40.3907 14.0119 39.2221C12.7443 38.6387 12.0781 38.1461 12.0781 37.6803V33.0176C12.0781 33.0176 30.4045 29.1712 33.3631 28.1487C36.3218 27.1255 37.3483 27.0881 39.8663 27.9775C42.3843 28.8661 57.4388 31.4847 59.9276 32.3635L59.926 36.9605C59.926 37.4207 59.3523 37.9262 58.0523 38.5794Z" fill="#912626"/>
<path d="M58.052 35.262C55.4991 36.605 42.2712 42.0922 39.4554 43.5739C36.6396 45.0549 35.0742 45.0403 32.85 43.9675C30.6249 42.8955 16.5483 37.1576 14.0124 35.9347C11.4765 34.7126 11.4238 33.8703 13.915 32.886C16.4054 31.9025 30.4042 26.3601 33.3628 25.2898C36.3215 24.2186 37.348 24.1797 39.866 25.1112C42.3832 26.0412 55.5323 31.3215 58.0203 32.2409C60.5091 33.1611 60.6057 33.919 58.052 35.262Z" fill="#C6302B"/>
<path d="M58.0523 31.3333C55.4994 32.6163 42.2707 37.86 39.4549 39.2761C36.6391 40.6913 35.0745 40.6775 32.8495 39.6518C30.6244 38.6269 16.5477 33.1446 14.0119 31.9768C12.7443 31.3926 12.0781 30.9 12.0781 30.435V25.7715C12.0781 25.7715 30.4045 21.9251 33.3631 20.9026C36.3218 19.8794 37.3483 19.842 39.8663 20.7314C42.3843 21.6208 57.4388 24.2386 59.9276 25.1174L59.926 29.7145C59.926 30.1746 59.3523 30.6801 58.0523 31.3333Z" fill="#912626"/>
<path d="M58.0516 26.5636C55.4987 27.9066 42.2708 33.3946 39.4542 34.8755C36.6384 36.3565 35.0738 36.3419 32.8488 35.2699C30.6253 34.1963 16.5479 28.4592 14.0128 27.2363C11.4769 26.0142 11.4234 25.1719 13.9146 24.1884C16.4058 23.2049 30.4046 17.6633 33.3641 16.5922C36.3219 15.521 37.3484 15.4829 39.8664 16.4137C42.3836 17.3436 55.5328 22.6239 58.0207 23.5441C60.5095 24.4635 60.6053 25.2206 58.0516 26.5636Z" fill="#C6302B"/>
<path d="M41.0789 22.2071L36.9753 22.642L36.0567 24.8955L34.5733 22.3799L29.8343 21.9466L33.3707 20.6466L32.3093 18.6504L35.6201 19.9707L38.7402 18.9287L37.8963 20.9923L41.0789 22.2071ZM35.8124 33.1409L28.1537 29.9031L39.1273 28.1852L35.8124 33.1409ZM25.1935 23.46C28.4329 23.46 31.0588 24.4987 31.0588 25.7784C31.0588 27.0589 28.4329 28.096 25.1935 28.096C21.9541 28.096 19.3281 27.0581 19.3281 25.7784C19.3281 24.4979 21.9541 23.46 25.1935 23.46Z" fill="white"/>
<path d="M46.875 22.9961L52.677 25.8955L46.8815 28.7925L46.8766 22.9961" fill="#621B1C"/>
<path d="M39.625 26.0432L46.8707 22.9961L46.8763 28.4963L46.1655 28.7925L39.625 26.0432Z" fill="#9A2928"/>
</g>
<mask id="mask1_611_3689" style="mask-type:luminance" maskUnits="userSpaceOnUse" x="11" y="15" width="50" height="42">
<path d="M60.75 15.75H11.25V56.3238H60.75V15.75Z" fill="white"/>
</mask>
<g mask="url(#mask1_611_3689)">
<path d="M58.065 47.2748C55.5089 48.5577 42.2737 53.8006 39.4555 55.2167C36.6372 56.6319 35.0719 56.6181 32.846 55.5932C30.6193 54.5675 16.5337 49.086 13.9962 47.9174C12.7279 47.334 12.0625 46.8406 12.0625 46.3765V41.7137C12.0625 41.7137 30.4002 37.8673 33.3605 36.844C36.3207 35.8208 37.3481 35.7835 39.8677 36.6728C42.3873 37.5622 57.4524 40.1808 59.9412 41.0597V45.6559C59.9412 46.1168 59.3658 46.6223 58.0659 47.2756L58.065 47.2748Z" fill="#B6B6B6"/>
<path d="M58.0512 42.5047C55.4983 43.8468 42.2704 49.3349 39.4546 50.8158C36.6388 52.2976 35.0734 52.2829 32.8492 51.2102C30.6241 50.1374 16.5474 44.3995 14.0124 43.1766C11.4765 41.9545 11.4238 41.113 13.915 40.1287C16.4054 39.1443 30.4034 33.6028 33.362 32.5316C36.3207 31.4605 37.3472 31.4223 39.8652 32.3531C42.3824 33.2831 55.5315 38.5641 58.0195 39.4835C60.5083 40.4038 60.6049 41.1617 58.0512 42.5047Z" fill="#646464"/>
<path d="M58.0523 38.5794C55.4994 39.8632 42.2707 45.1061 39.4549 46.5222C36.6391 47.9366 35.0745 47.9228 32.8495 46.8979C30.6244 45.873 16.5477 40.3907 14.0119 39.2221C12.7443 38.6387 12.0781 38.1461 12.0781 37.6803V33.0176C12.0781 33.0176 30.4045 29.1712 33.3631 28.1487C36.3218 27.1255 37.3483 27.0881 39.8663 27.9775C42.3843 28.8661 57.4388 31.4847 59.9276 32.3635L59.926 36.9605C59.926 37.4207 59.3523 37.9262 58.0523 38.5794Z" fill="#B6B6B6"/>
<path d="M58.052 35.262C55.4991 36.605 42.2712 42.0922 39.4554 43.5739C36.6396 45.0549 35.0742 45.0403 32.85 43.9675C30.6249 42.8955 16.5483 37.1576 14.0124 35.9347C11.4765 34.7126 11.4238 33.8703 13.915 32.886C16.4054 31.9025 30.4042 26.3601 33.3628 25.2898C36.3215 24.2186 37.348 24.1797 39.866 25.1112C42.3832 26.0412 55.5323 31.3215 58.0203 32.2409C60.5091 33.1611 60.6057 33.919 58.052 35.262Z" fill="#646464"/>
<path d="M58.0523 31.3333C55.4994 32.6163 42.2707 37.86 39.4549 39.2761C36.6391 40.6913 35.0745 40.6775 32.8495 39.6518C30.6244 38.6269 16.5477 33.1446 14.0119 31.9768C12.7443 31.3926 12.0781 30.9 12.0781 30.435V25.7715C12.0781 25.7715 30.4045 21.9251 33.3631 20.9026C36.3218 19.8794 37.3483 19.842 39.8663 20.7314C42.3843 21.6208 57.4388 24.2386 59.9276 25.1174L59.926 29.7145C59.926 30.1746 59.3523 30.6801 58.0523 31.3333Z" fill="#B6B6B6"/>
<path d="M58.0516 26.5636C55.4987 27.9066 42.2708 33.3946 39.4542 34.8755C36.6384 36.3565 35.0738 36.3419 32.8488 35.2699C30.6253 34.1963 16.5479 28.4592 14.0128 27.2363C11.4769 26.0142 11.4234 25.1719 13.9146 24.1884C16.4058 23.2049 30.4046 17.6633 33.3641 16.5922C36.3219 15.521 37.3484 15.4829 39.8664 16.4137C42.3836 17.3436 55.5328 22.6239 58.0207 23.5441C60.5095 24.4635 60.6053 25.2206 58.0516 26.5636Z" fill="#646464"/>
<path d="M41.0789 22.2071L36.9753 22.642L36.0567 24.8955L34.5733 22.3799L29.8343 21.9466L33.3707 20.6466L32.3093 18.6504L35.6201 19.9707L38.7402 18.9287L37.8963 20.9923L41.0789 22.2071ZM35.8124 33.1409L28.1537 29.9031L39.1273 28.1852L35.8124 33.1409ZM25.1935 23.46C28.4329 23.46 31.0588 24.4987 31.0588 25.7784C31.0588 27.0589 28.4329 28.096 25.1935 28.096C21.9541 28.096 19.3281 27.0581 19.3281 25.7784C19.3281 24.4979 21.9541 23.46 25.1935 23.46Z" fill="white"/>
<path d="M46.875 22.9961L52.677 25.8955L46.8815 28.7925L46.8766 22.9961" fill="#7F7F7F"/>
<path d="M39.625 26.0432L46.8707 22.9961L46.8763 28.4963L46.1655 28.7925L39.625 26.0432Z" fill="#101010"/>
</g>
</g>
<defs>
<clipPath id="clip0_611_3689">
<rect width="72" height="72" fill="white"/>
</clipPath>
</defs>
</svg>
