<svg width="65" height="50" viewBox="0 0 65 50" fill="none" xmlns="http://www.w3.org/2000/svg">
<g clip-path="url(#clip0_611_3600)">
<g clip-path="url(#clip1_611_3600)">
<mask id="mask0_611_3600" style="mask-type:luminance" maskUnits="userSpaceOnUse" x="0" y="0" width="65" height="50">
<path d="M64.4003 0.517578H0.320312V49.4776H64.4003V0.517578Z" fill="white"/>
</mask>
<g mask="url(#mask0_611_3600)">
<path d="M55.4984 28.6627C53.4823 28.6661 51.4947 29.1355 49.6928 30.0336C49.0963 28.8291 48.4999 27.7559 48.3934 26.9687C48.2771 26.0511 48.1371 25.4901 48.2771 24.3934C48.4171 23.2967 49.049 21.7348 49.0372 21.6154C49.0263 21.4959 48.8972 20.9358 47.6097 20.9241C46.3221 20.9113 45.2101 21.1738 45.082 21.5194C44.8575 22.1543 44.6774 22.8037 44.5427 23.4631C44.3209 24.6558 41.9687 28.9133 40.622 31.143C40.1882 30.2725 39.8136 29.5097 39.7328 28.9006C39.6154 27.9831 39.4754 27.422 39.6154 26.3253C39.7564 25.2286 40.3883 23.6658 40.3765 23.5473C40.3647 23.4279 40.2355 22.8678 38.948 22.855C37.6605 22.8433 36.5485 23.1057 36.4203 23.4524C36.2921 23.797 36.1512 24.6078 35.882 25.3951C35.6129 26.1824 32.4878 33.2894 31.6685 35.1264C31.3374 35.8689 30.99 36.6041 30.6265 37.3315C30.6265 37.3315 30.6147 37.3678 30.5802 37.4275C30.3574 37.8681 30.2282 38.1071 30.2282 38.1071V38.1188C30.0527 38.441 29.8654 38.7386 29.7718 38.7386C29.7027 38.7386 29.5736 37.8809 29.7954 36.7117C30.2637 34.2441 31.3757 30.4037 31.3639 30.2725C31.3639 30.201 31.5749 29.5332 30.6383 29.1875C29.7254 28.8419 29.3971 29.4137 29.3153 29.4137C29.2335 29.4137 29.1753 29.6164 29.1753 29.6164C29.1753 29.6164 30.1937 25.3001 27.2322 25.3001C25.3828 25.3001 22.8314 27.3633 21.5675 29.2228C20.771 29.6644 19.0734 30.6064 17.2594 31.6199C16.5693 32.0135 15.8556 32.4071 15.1891 32.7763C15.1418 32.7293 15.0945 32.6686 15.0481 32.6216C11.4666 28.7224 4.84168 25.9679 5.12264 20.7331C5.22813 18.8246 5.87188 13.817 17.845 7.73521C27.7005 2.78633 35.5429 4.15721 36.9004 7.19861C38.8425 11.5394 32.6987 19.6002 22.5149 20.7684C18.6297 21.209 16.593 19.6834 16.0774 19.1116C15.5391 18.5142 15.4573 18.479 15.2591 18.5985C14.9308 18.7776 15.1408 19.3133 15.2591 19.6237C15.5628 20.4345 16.8158 21.866 18.9334 22.5691C20.8065 23.1889 25.3591 23.5356 30.872 21.3647C37.0404 18.9324 41.8632 12.171 40.4465 6.50729C39.0308 0.759387 29.6673 -1.13732 20.8065 2.07152C15.5391 3.97802 9.82809 6.98318 5.71908 10.8941C0.839141 15.5463 0.0662372 19.5884 0.381708 21.2815C1.5174 27.2918 9.65261 31.2027 12.9059 34.1002C12.7422 34.1961 12.5904 34.2794 12.4613 34.3508C10.8346 35.1734 4.63071 38.4772 3.08588 41.971C1.33108 45.9299 3.36685 48.7676 4.71253 49.1485C8.89153 50.3294 13.1869 48.2075 15.4928 44.701C17.7987 41.1955 17.5177 36.6402 16.452 34.5535C16.4412 34.527 16.4255 34.5028 16.4057 34.4821C16.8266 34.2314 17.2604 33.969 17.6813 33.7183C18.4554 33.2521 19.2397 32.8029 20.0336 32.3709C19.6363 33.4803 19.3435 34.8042 19.2035 36.7117C19.027 38.9541 19.9291 41.8633 21.1111 43.008C21.6375 43.5083 22.2576 43.5211 22.6559 43.5211C24.0361 43.5211 24.6572 42.3519 25.3473 40.9693C26.1902 39.2752 26.9513 37.308 26.9513 37.308C26.9513 37.308 26.0029 42.6261 28.5779 42.6261C29.5145 42.6261 30.4628 41.3864 30.8848 40.7538V40.7666C30.8848 40.7666 30.9075 40.7303 30.9538 40.6471L31.1066 40.3964V40.3729C31.4812 39.7051 32.3231 38.1903 33.5761 35.6747C35.191 32.4306 36.7476 28.3767 36.7476 28.3767C36.7476 28.3767 36.8886 29.3657 37.3687 31.0118C37.6497 31.9782 38.2343 33.0387 38.7025 34.0649C38.3279 34.6015 38.0943 34.8992 38.0943 34.8992L38.1051 34.9109C37.8015 35.3163 37.4742 35.758 37.1104 36.1868C35.8347 37.7369 34.3136 39.5142 34.1036 40.0273C33.8571 40.6344 33.9163 41.076 34.3835 41.4344C34.7227 41.6958 35.3319 41.7321 35.952 41.6958C37.0986 41.6126 37.907 41.3267 38.3043 41.1475C39.0294 40.8869 39.7117 40.5213 40.3292 40.0625C41.5812 39.1205 42.3423 37.7732 42.2723 35.9969C42.2378 35.0177 41.9213 34.0404 41.5349 33.1229C41.6522 32.9565 41.7577 32.789 41.875 32.6216C43.8526 29.6761 45.3856 26.4448 45.3856 26.4448C45.3856 26.4448 45.5266 27.4338 46.0067 29.0798C46.2403 29.9151 46.7204 30.8208 47.1414 31.7041C45.2801 33.2414 44.1336 35.0304 43.7235 36.1986C42.986 38.3695 43.5598 39.3467 44.6482 39.5739C45.1401 39.6816 45.842 39.4427 46.3576 39.2155C47.1353 38.955 47.8661 38.5729 48.5226 38.0836C49.7746 37.1416 50.9803 35.8294 50.9103 34.0532C50.8748 33.2414 50.6638 32.4424 50.372 31.6678C51.9523 31 53.9881 30.6299 56.5868 30.9403C62.1578 31.6081 63.259 35.1499 63.048 36.6402C62.837 38.1306 61.6668 38.9413 61.2804 39.192C60.8939 39.4427 60.7658 39.5259 60.8003 39.7051C60.8476 39.9675 61.0349 39.9548 61.3622 39.9078C61.8187 39.8246 64.2882 38.7034 64.3937 35.9607C64.5692 32.4551 61.2922 28.6264 55.4984 28.6627ZM12.5194 43.4251C10.67 45.4765 8.09497 46.2511 6.98392 45.596C5.79006 44.8919 6.25735 41.8633 8.52874 39.6934C9.90893 38.3695 11.6884 37.1406 12.8704 36.3895C13.1405 36.2231 13.5378 35.9842 14.0179 35.6865C14.0998 35.6385 14.1461 35.615 14.1461 35.615L14.428 35.4358C15.2581 38.5359 14.4626 41.266 12.5194 43.4251ZM25.9802 34.1002C25.3364 35.6982 23.9898 39.7883 23.1705 39.5621C22.4686 39.3712 22.0358 36.2711 23.0305 33.2062C23.5333 31.6678 24.598 29.8309 25.2191 29.116C26.2257 27.9704 27.3377 27.5895 27.6068 28.0546C27.946 28.6627 26.3775 33.0984 25.9802 34.1002ZM37.0877 39.5142C36.8186 39.6571 36.5603 39.7521 36.444 39.6806C36.3612 39.6336 36.5603 39.4427 36.5603 39.4427C36.5603 39.4427 37.9533 37.9161 38.5034 37.2248C38.8189 36.8194 39.1935 36.3425 39.5918 35.805V35.9607C39.5918 37.7849 37.8596 39.0128 37.0877 39.5142ZM45.6547 37.5225C45.4556 37.3795 45.4911 36.9026 46.1575 35.4123C46.4158 34.8277 47.0251 33.8495 48.0661 32.9075C48.1834 33.2894 48.2653 33.6595 48.2534 34.0042C48.2416 36.3063 46.6268 37.1651 45.6547 37.5225Z" fill="#2B2B2B"/>
</g>
</g>
</g>
<defs>
<clipPath id="clip0_611_3600">
<rect width="65" height="50" fill="white"/>
</clipPath>
<clipPath id="clip1_611_3600">
<rect width="65" height="50" fill="white"/>
</clipPath>
</defs>
</svg>
