<svg width="72" height="72" viewBox="0 0 72 72" fill="none" xmlns="http://www.w3.org/2000/svg">
<g clip-path="url(#clip0_611_3737)">
<mask id="mask0_611_3737" style="mask-type:luminance" maskUnits="userSpaceOnUse" x="6" y="6" width="60" height="60">
<path d="M65.8376 6.74609H6.16406V65.2495H65.8376V6.74609Z" fill="white"/>
</mask>
<g mask="url(#mask0_611_3737)">
<path d="M60.6373 52.0033C57.4547 51.9214 54.987 52.2467 52.9184 53.1383C52.3216 53.3805 51.3669 53.3817 51.2873 54.1516C51.6055 54.4757 51.6453 55.0022 51.9238 55.448C52.4012 56.2589 53.2366 57.354 53.9925 57.9215C54.8279 58.5697 55.6633 59.218 56.5386 59.7854C58.0912 60.7589 59.8417 61.3264 61.3534 62.2988C62.2298 62.8662 63.1038 63.5964 63.9802 64.2036C64.4178 64.5277 64.6963 65.0554 65.2532 65.2579V65.1362C64.9748 64.7711 64.8952 64.2446 64.6167 63.8397C64.2189 63.4337 63.8211 63.0687 63.4232 62.6638C62.2684 61.083 60.8374 59.7047 59.2847 58.5697C58.0117 57.6782 55.2257 56.4624 54.7097 54.9624L54.629 54.8805C55.5042 54.7998 56.5386 54.4757 57.3752 54.2323C58.7278 53.8672 59.961 53.9491 61.3534 53.5841C61.9899 53.4214 62.6264 53.219 63.2641 53.0166V52.6515C62.548 51.9226 62.0309 50.9491 61.275 50.2599C59.2449 48.4756 57.0159 46.7333 54.7086 45.2743C53.4753 44.4634 51.884 43.9369 50.57 43.2477C50.0938 43.0043 49.297 42.8826 49.0185 42.4778C48.3024 41.5862 47.9046 40.4103 47.3875 39.356C46.2338 37.1271 45.1199 34.6547 44.1241 32.3029C43.4092 30.7233 42.9704 29.1413 42.0952 27.6823C37.9977 20.7906 33.5409 16.6157 26.6971 12.5217C25.2252 11.671 23.4736 11.306 21.6038 10.8602C20.6093 10.8192 19.6147 10.7385 18.6201 10.6975C17.9825 10.4144 17.3459 9.64448 16.789 9.27942C14.5214 7.81917 8.67221 4.65764 7.00136 8.83362C5.92606 11.4686 8.59265 14.0627 9.50764 15.4C10.1839 16.3326 11.0592 17.3857 11.5365 18.4399C11.815 19.1291 11.8946 19.8592 12.1731 20.5881C12.8107 22.3713 13.4063 24.3581 14.2429 26.0208C14.6805 26.8714 15.1579 27.7642 15.7149 28.5329C16.0331 28.9787 16.5901 29.1823 16.7094 29.9112C16.1525 30.7221 16.1127 31.9378 15.7944 32.9522C14.3623 37.5319 14.9192 43.2067 16.9481 46.5719C17.5846 47.584 19.0975 49.8141 21.1253 48.9635C22.9166 48.2334 22.5188 45.9225 23.036 43.8971C23.1553 43.4092 23.0758 43.085 23.3145 42.7621V42.8428C23.8714 43.9778 24.4284 45.0718 24.9455 46.2068C26.18 48.1924 28.327 50.2599 30.1184 51.6383C31.0744 52.3672 31.8302 53.6239 33.0237 54.0708V53.948H32.9441C32.7054 53.5841 32.3474 53.4214 32.0291 53.1371C31.313 52.4082 30.5162 51.5166 29.9593 50.7057C28.2884 48.4358 26.8165 45.9225 25.5037 43.3284C24.8671 42.0718 24.3102 40.6934 23.7918 39.4368C23.5532 38.95 23.5532 38.2211 23.1553 37.9777C22.5586 38.8693 21.6834 39.6392 21.2458 40.7344C20.4899 42.4778 20.4103 44.626 20.1319 46.8538C19.9727 46.896 20.0511 46.8538 19.9727 46.9357C18.6997 46.6116 18.2609 45.2742 17.7847 44.1393C16.5901 41.2609 16.3912 36.6403 17.4255 33.3161C17.704 32.4655 18.8986 29.7896 18.4201 28.9787C18.1814 28.2088 17.3857 27.763 16.9481 27.1557C16.4309 26.3847 15.874 25.4123 15.5159 24.5605C14.5612 22.2906 14.0838 19.7773 13.0494 17.5073C12.5709 16.4543 11.7366 15.3603 11.0603 14.3868C10.3033 13.2928 9.46786 12.5217 8.87113 11.2252C8.67221 10.7794 8.39374 10.0493 8.712 9.56374C8.79156 9.23846 8.95069 9.11678 9.26895 9.03721C9.78612 8.59024 11.2581 9.15773 11.7752 9.39993C13.2484 10.0084 14.4816 10.577 15.7149 11.4277C16.2718 11.8325 16.8685 12.6036 17.5846 12.806H18.4201C19.6943 13.0892 21.1264 12.8879 22.3199 13.2506C24.4284 13.941 26.3379 14.9543 28.0497 16.0483C33.2624 19.4134 37.5589 24.1966 40.4642 29.9112C40.9415 30.8438 41.1405 31.6956 41.5781 32.6679C42.4147 34.6547 43.449 36.6813 44.2833 38.6271C45.1199 40.532 45.9155 42.4766 47.109 44.0585C47.7057 44.9092 50.0927 45.355 51.1679 45.8019C51.9636 46.1658 53.1968 46.4899 53.9129 46.9369C55.2655 47.7876 56.6181 48.7611 57.8912 49.6924C58.5288 50.1792 60.518 51.1925 60.6373 52.0033Z" fill="white"/>
</g>
</g>
<defs>
<clipPath id="clip0_611_3737">
<rect width="72" height="72" fill="white"/>
</clipPath>
</defs>
</svg>
