<svg width="1625" height="600" viewBox="0 0 1625 600" fill="none" xmlns="http://www.w3.org/2000/svg">
<path d="M73.595 118.446V412.036H2.76953V118.446H73.595ZM73.595 1.00977V59.7279H2.76953V1.00977H73.595Z" fill="#232323" fill-opacity="0.5"/>
<path d="M487.896 294.598V353.316H417.07V294.598H487.896ZM275.42 59.7266V412.034H254.88C240.243 412.034 228.203 408.12 218.76 400.291C209.316 392.461 204.594 382.479 204.594 370.345V59.7266H275.42ZM417.07 353.316V412.034H275.42V353.316H417.07ZM417.07 118.445V177.162H133.77V118.445H417.07Z" fill="#232323" fill-opacity="0.5"/>
<path d="M810.369 118.446H881.199V412.036H810.369V118.446ZM527.07 232.946C527.07 207.893 534.861 186.363 550.443 168.356C566.024 150.349 587.272 136.649 614.185 127.254C641.571 117.467 671.79 112.574 704.841 112.574C737.419 112.574 767.171 117.467 794.078 127.254C820.993 136.649 842.242 150.349 857.823 168.356C873.405 186.363 881.199 207.893 881.199 232.946V291.077C881.199 316.129 873.405 337.855 857.823 356.254C842.242 374.26 820.993 388.157 794.078 397.943C767.171 407.338 737.419 412.036 704.841 412.036C671.79 412.036 641.571 407.338 614.185 397.943C587.272 388.157 566.024 374.26 550.443 356.254C534.861 337.855 527.07 316.129 527.07 291.077V232.946ZM597.895 282.856C597.895 309.083 608.756 327.482 630.475 338.051C652.667 348.229 677.456 353.318 704.841 353.318C731.284 353.318 755.362 348.229 777.086 338.051C798.802 327.482 809.66 309.083 809.66 282.856V241.167C809.66 214.939 798.802 196.736 777.086 186.559C755.837 176.381 731.752 171.292 704.841 171.292C677.456 171.292 652.667 176.381 630.475 186.559C608.756 196.736 597.895 214.939 597.895 241.167V282.856ZM739.546 232.946V291.664H668.721V232.946H739.546Z" fill="#232323" fill-opacity="0.5"/>
<path d="M1265.67 247.625C1265.67 221.397 1254.81 203.195 1233.09 193.017C1211.37 182.448 1187.29 177.163 1160.85 177.163C1133.46 177.163 1108.67 182.448 1086.48 193.017C1064.76 203.195 1053.9 221.397 1053.9 247.625V289.315L983.072 297.535V239.404C983.072 214.351 990.867 192.821 1006.45 174.815C1022.03 156.416 1043.28 142.52 1070.19 133.125C1097.58 123.338 1127.8 118.445 1160.85 118.445C1193.43 118.445 1222.94 123.338 1249.38 133.125C1276.29 142.52 1297.54 156.416 1313.12 174.815C1328.7 192.821 1336.49 214.351 1336.49 239.404V412.035H1265.67V247.625ZM1053.9 230.009V412.035H983.072V230.009H1053.9ZM1619.8 353.317V412.035H1548.97V353.317H1619.8ZM1548.26 247.625C1548.26 221.397 1537.4 203.195 1515.68 193.017C1493.96 182.448 1469.88 177.163 1443.44 177.163C1416.05 177.163 1391.26 182.448 1369.07 193.017C1346.88 203.195 1335.78 221.397 1335.78 247.625V289.315L1265.67 297.535V239.404C1265.67 214.351 1273.46 192.821 1289.04 174.815C1304.62 156.416 1325.87 142.52 1352.78 133.125C1380.17 123.338 1410.39 118.445 1443.44 118.445C1476.02 118.445 1505.77 123.338 1532.68 133.125C1559.59 142.52 1580.84 156.416 1596.42 174.815C1612 192.821 1619.8 214.351 1619.8 239.404V353.317H1548.26V247.625ZM1005.03 118.445V177.163H934.207V118.445H1005.03Z" fill="#232323" fill-opacity="0.5"/>
</svg>
